<!DOCTYPE svg PUBLIC "-//W3C//DTD SVG 20010904//EN" "http://www.w3.org/TR/2001/REC-SVG-20010904/DTD/svg10.dtd">
<svg version="1.0" xmlns="http://www.w3.org/2000/svg" width="1600px" height="203px" viewBox="0 0 16000 2030" preserveAspectRatio="xMidYMid meet">
<g id="layer101" fill="#ff2b06" stroke="none">
 <path d="M1620 1865 l0 -166 43 0 c23 0 63 -2 89 -5 43 -5 50 -3 77 23 49 49 50 163 2 207 -28 26 -86 32 -116 12 l-25 -16 0 55 0 55 -35 0 -35 0 0 -165z m161 9 c23 -28 17 -93 -10 -115 -29 -24 -36 -24 -61 1 -22 22 -27 78 -10 111 13 24 62 26 81 3z"/>
 <path d="M3490 2002 c0 -26 4 -31 27 -34 17 -2 29 -10 31 -21 2 -9 -15 -66 -37 -125 -23 -59 -41 -111 -41 -116 0 -4 17 -6 37 -4 36 3 37 4 62 78 l25 75 25 -77 25 -78 38 0 37 0 -28 78 c-16 42 -41 109 -56 149 -15 40 -33 77 -41 84 -8 6 -34 14 -59 17 -45 5 -45 4 -45 -26z"/>
 <path d="M4315 2005 c-36 -35 -33 -55 9 -55 21 0 36 6 40 15 8 23 73 20 86 -4 5 -11 10 -27 10 -35 0 -13 -4 -13 -35 0 -80 33 -140 -17 -140 -118 0 -55 3 -62 33 -89 37 -34 94 -39 124 -12 11 9 18 11 18 5 0 -7 15 -12 35 -12 l35 0 0 113 c0 185 -20 217 -135 217 -46 0 -60 -4 -80 -25z m126 -146 c36 -36 10 -119 -38 -119 -23 0 -53 39 -53 68 0 35 26 72 51 72 10 0 29 -10 40 -21z"/>
 <path d="M1124 1931 c-71 -44 -72 -176 -2 -225 26 -18 80 -21 109 -6 18 10 19 7 19 -45 l0 -55 35 0 35 0 0 170 0 171 -42 0 c-24 -1 -61 2 -83 5 -29 3 -48 0 -71 -15z m116 -60 c17 -33 12 -89 -10 -111 -24 -24 -29 -24 -57 -5 -29 20 -36 58 -19 100 12 29 20 35 45 35 20 0 34 -7 41 -19z"/>
 <path d="M1408 1935 c-38 -21 -58 -64 -58 -122 0 -55 17 -86 60 -108 84 -43 180 12 180 103 l0 32 -85 0 c-47 0 -85 3 -85 6 0 3 5 14 10 25 13 24 78 27 86 4 4 -9 19 -15 39 -15 28 0 32 3 28 19 -15 57 -116 89 -175 56z m112 -155 c0 -5 -11 -17 -25 -26 -23 -15 -27 -15 -50 0 -38 25 -30 36 25 36 28 0 50 -4 50 -10z"/>
 <path d="M1960 1943 c-80 -29 -101 -161 -36 -222 30 -28 95 -38 136 -21 34 14 70 73 70 115 0 25 -1 25 -85 25 -63 0 -85 3 -85 13 0 35 66 51 90 22 14 -17 70 -21 70 -4 0 53 -94 96 -160 72z m90 -168 c0 -23 -35 -37 -64 -25 -44 16 -33 40 19 40 33 0 45 -4 45 -15z"/>
 <path d="M2469 1935 c-28 -15 -59 -79 -59 -121 0 -37 25 -89 51 -108 27 -18 81 -21 110 -6 18 10 19 7 19 -45 l0 -55 35 0 35 0 0 170 0 171 -42 0 c-24 -1 -61 1 -83 4 -25 3 -50 0 -66 -10z m111 -64 c17 -33 12 -89 -10 -111 -24 -24 -29 -24 -57 -5 -51 36 -31 135 27 135 19 0 33 -7 40 -19z"/>
 <path d="M2748 1935 c-80 -45 -77 -189 4 -231 79 -41 178 12 178 96 l0 40 -85 0 c-47 0 -85 3 -85 6 0 3 5 14 10 25 13 24 78 27 86 4 7 -17 74 -21 74 -5 0 5 -13 24 -28 41 -23 26 -37 32 -78 35 -32 3 -58 -1 -76 -11z m112 -155 c0 -5 -11 -17 -25 -26 -23 -15 -27 -15 -50 0 -38 25 -30 36 25 36 28 0 50 -4 50 -10z"/>
 <path d="M3283 1940 c-33 -14 -43 -42 -43 -124 0 -69 -2 -76 -20 -76 -13 0 -20 -7 -20 -20 0 -13 7 -20 20 -20 17 0 20 -7 20 -40 l0 -40 40 0 40 0 0 40 c0 33 3 40 20 40 13 0 20 7 20 20 0 13 -7 20 -20 20 -18 0 -20 7 -20 75 0 69 2 75 21 75 16 0 20 5 17 28 -2 21 -9 27 -28 29 -14 1 -35 -2 -47 -7z"/>
 <path d="M3915 1940 c-59 -24 -92 -115 -65 -180 16 -39 67 -70 116 -70 80 0 126 48 126 128 -1 28 -6 61 -12 72 -26 48 -109 73 -165 50z m95 -69 c5 -11 10 -38 10 -60 0 -75 -75 -92 -101 -23 -11 27 -5 68 13 89 16 20 66 16 78 -6z"/>
 <path d="M4571 1933 c-16 -13 -23 -30 -24 -57 -1 -48 24 -71 89 -80 53 -7 75 -21 67 -42 -7 -19 -62 -18 -69 1 -7 17 -84 22 -84 6 0 -6 11 -23 24 -38 22 -26 30 -28 96 -28 100 0 110 13 110 147 l0 99 -47 -1 c-27 0 -68 3 -93 6 -36 4 -51 2 -69 -13z m128 -65 c9 -15 13 -30 9 -33 -10 -11 -79 7 -85 21 -18 49 50 59 76 12z"/>
 <path d="M5468 1935 c-80 -45 -77 -189 4 -231 79 -41 178 12 178 96 l0 40 -85 0 c-47 0 -85 3 -85 6 0 3 5 14 10 25 13 24 78 27 86 4 7 -17 74 -21 74 -5 0 5 -13 24 -28 41 -23 26 -37 32 -78 35 -32 3 -58 -1 -76 -11z m112 -155 c0 -5 -11 -17 -25 -26 -23 -15 -27 -15 -50 0 -38 25 -30 36 25 36 28 0 50 -4 50 -10z"/>
 <path d="M5730 1937 c-39 -19 -62 -73 -57 -136 3 -46 9 -59 36 -83 36 -32 84 -37 119 -12 l22 15 0 -60 0 -61 35 0 35 0 0 170 0 170 -35 0 c-19 0 -35 -5 -35 -11 0 -5 -10 -3 -22 5 -27 19 -64 20 -98 3z m106 -72 c30 -45 2 -125 -43 -125 -24 0 -53 39 -53 73 0 70 62 104 96 52z"/>
 <path d="M7139 1927 c-48 -32 -68 -95 -48 -151 26 -74 110 -107 180 -70 32 16 59 66 59 109 0 25 -1 25 -85 25 -63 0 -85 3 -85 13 0 35 66 51 90 22 7 -8 28 -15 47 -15 l35 0 -19 32 c-35 61 -113 76 -174 35z m112 -156 c-15 -27 -41 -34 -67 -16 -37 24 -29 35 26 35 47 0 50 -2 41 -19z"/>
 <path d="M7623 1935 c-83 -36 -85 -188 -3 -230 76 -39 162 -1 180 79 5 22 7 44 4 48 -3 4 -43 8 -89 8 -83 0 -84 0 -76 23 10 28 71 36 91 13 11 -14 70 -23 70 -11 0 21 -29 57 -55 70 -40 18 -80 19 -122 0z m107 -154 c0 -13 -29 -41 -41 -41 -18 0 -46 19 -53 35 -4 12 4 15 44 15 28 0 50 -4 50 -9z"/>
 <path d="M8165 1943 c-40 -10 -45 -23 -45 -114 0 -82 -2 -89 -20 -89 -13 0 -20 -7 -20 -20 0 -13 7 -20 20 -20 17 0 20 -7 20 -40 0 -39 1 -40 35 -40 34 0 35 1 35 40 0 36 3 40 25 40 18 0 25 5 25 20 0 15 -7 20 -25 20 -26 0 -26 1 -23 73 3 66 5 72 26 75 15 2 22 10 22 27 0 31 -24 40 -75 28z"/>
 <path d="M60 1881 c22 -33 40 -64 40 -68 0 -5 -16 -32 -35 -61 l-36 -52 41 0 c32 0 46 6 63 26 l23 26 13 -26 c12 -22 21 -26 57 -26 l43 0 -39 56 -39 55 46 65 45 64 -44 0 c-38 0 -46 -4 -61 -30 -10 -16 -22 -30 -27 -30 -5 0 -17 14 -27 30 -15 26 -23 30 -61 30 l-43 0 41 -59z"/>
 <path d="M700 1820 l0 -120 35 0 35 0 0 120 0 120 -35 0 -35 0 0 -120z"/>
 <path d="M810 1820 l0 -120 35 0 c19 0 35 5 35 11 0 5 10 3 22 -5 32 -23 94 -20 118 4 17 17 20 33 20 125 l0 105 -35 0 -34 0 -3 -92 -3 -93 -29 -3 c-16 -2 -32 2 -37 10 -5 7 -9 50 -9 96 l0 82 -40 0 -40 0 0 -120z"/>
 <path d="M2150 1820 l0 -120 35 0 c19 0 35 5 35 11 0 5 10 3 22 -5 25 -18 80 -21 108 -6 27 15 40 64 40 156 l0 84 -40 0 -39 0 -3 -92 -3 -93 -29 -3 c-16 -2 -32 2 -37 10 -5 7 -9 50 -9 96 l0 82 -40 0 -40 0 0 -120z"/>
 <path d="M2960 1819 l0 -122 45 5 c25 3 48 2 51 -3 3 -5 23 -9 45 -9 29 0 47 7 64 25 23 22 25 31 25 125 l0 100 -35 0 -35 0 0 -76 c0 -86 -11 -114 -43 -114 -39 0 -47 19 -47 107 l0 83 -35 0 -35 0 0 -121z"/>
 <path d="M3380 1770 l0 -170 40 0 40 0 0 170 0 170 -40 0 -40 0 0 -170z"/>
 <path d="M4110 1820 l0 -120 35 0 c25 0 35 4 35 16 0 13 5 12 26 -5 15 -12 37 -21 50 -21 21 0 24 5 24 35 0 32 -2 35 -29 35 -48 0 -61 22 -61 106 l0 74 -40 0 -40 0 0 -120z"/>
 <path d="M4810 1820 l0 -120 35 0 c19 0 35 5 35 11 0 5 10 3 22 -5 25 -18 80 -21 108 -6 27 15 40 64 40 156 l0 84 -35 0 -35 0 0 -69 c0 -88 -12 -121 -43 -121 -39 0 -47 18 -47 107 l0 83 -40 0 -40 0 0 -120z"/>
 <path d="M5070 1820 l0 -120 40 0 40 0 0 120 0 120 -40 0 -40 0 0 -120z"/>
 <path d="M5170 1914 c0 -18 19 -48 61 -95 l61 -69 -56 0 c-53 0 -56 -1 -56 -25 l0 -25 105 0 105 0 0 26 c0 17 -16 42 -46 74 -26 27 -53 58 -61 70 -14 20 -13 20 51 20 64 0 66 1 66 25 l0 25 -115 0 -115 0 0 -26z"/>
 <path d="M6160 1805 l0 -135 -50 0 -50 0 0 -35 0 -35 140 0 140 0 0 35 0 35 -50 0 -50 0 0 135 0 135 -40 0 -40 0 0 -135z"/>
 <path d="M6360 1770 l0 -170 125 0 125 0 0 35 0 35 -85 0 -85 0 0 35 0 35 80 0 80 0 0 30 0 30 -80 0 -80 0 0 35 0 35 90 0 90 0 0 35 0 35 -130 0 -130 0 0 -170z"/>
 <path d="M6650 1770 l0 -170 73 0 c134 0 195 33 217 118 21 83 -11 177 -70 207 -20 10 -60 15 -125 15 l-95 0 0 -170z m180 90 c27 -15 42 -77 29 -123 -13 -46 -42 -67 -96 -67 l-43 0 0 100 0 100 46 0 c25 0 54 -5 64 -10z"/>
 <path d="M7363 1820 l-42 -120 39 0 39 0 22 69 c13 39 26 68 29 66 4 -2 15 -34 25 -70 17 -64 18 -65 51 -65 19 0 34 3 34 7 0 4 -17 58 -37 120 l-37 113 -41 0 -40 0 -42 -120z"/>
 <path d="M7830 1820 l0 -120 35 0 c19 0 35 5 35 11 0 5 10 3 22 -5 34 -24 85 -20 113 9 23 22 25 31 25 125 l0 100 -35 0 -35 0 0 -79 c0 -99 -4 -111 -41 -111 -38 0 -49 28 -49 121 l0 69 -35 0 -35 0 0 -120z"/>
 <path d="M350 1870 l0 -30 120 0 120 0 0 30 0 30 -120 0 -120 0 0 -30z"/>
 <path d="M350 1770 l0 -30 120 0 120 0 0 30 0 30 -120 0 -120 0 0 -30z"/>
 <path d="M700 1630 c0 -28 3 -30 35 -30 32 0 35 2 35 30 0 28 -3 30 -35 30 -32 0 -35 -2 -35 -30z"/>
 <path d="M5070 1630 c0 -28 2 -30 40 -30 38 0 40 2 40 30 0 28 -2 30 -40 30 -38 0 -40 -2 -40 -30z"/>
 <path d="M11655 1343 c-173 -37 -290 -157 -303 -310 l-5 -63 69 0 69 0 13 52 c15 64 46 111 94 143 107 71 333 73 432 2 41 -29 70 -99 62 -149 -17 -102 -54 -124 -329 -192 -208 -51 -270 -77 -316 -133 -42 -50 -54 -102 -48 -194 6 -91 36 -158 96 -212 85 -77 174 -102 338 -95 95 4 117 8 174 35 36 16 82 45 102 62 44 39 93 137 103 203 l6 48 -76 0 c-72 0 -76 -1 -76 -22 -1 -63 -64 -143 -138 -173 -88 -37 -252 -25 -322 25 -37 26 -62 83 -63 141 -1 89 47 118 293 174 323 74 403 143 404 346 0 63 -5 86 -28 132 -78 159 -304 233 -551 180z"/>
 <path d="M6418 1338 c-49 -13 -116 -72 -139 -122 -21 -46 -25 -131 -8 -189 14 -51 73 -115 129 -139 25 -11 110 -28 190 -39 80 -11 153 -22 163 -25 11 -3 25 -21 33 -40 17 -41 6 -100 -24 -127 -49 -45 -168 -62 -235 -33 -41 17 -83 66 -92 106 -6 30 -7 30 -71 30 -73 0 -74 -2 -49 -88 20 -66 79 -124 155 -154 75 -28 231 -31 309 -4 72 25 134 86 149 148 8 30 12 139 12 296 0 274 1 279 60 270 l30 -5 0 54 c0 49 -2 53 -27 60 -85 23 -162 -4 -189 -67 l-18 -40 -25 23 c-92 85 -230 118 -353 85z m252 -133 c44 -22 88 -62 106 -98 8 -15 17 -63 21 -107 l6 -81 -28 11 c-15 6 -73 17 -129 26 -134 20 -173 32 -207 67 -23 23 -29 37 -29 73 0 55 21 98 58 119 36 20 154 15 202 -10z"/>
 <path d="M8357 1334 c-65 -20 -121 -78 -141 -145 -13 -43 -16 -111 -16 -361 l0 -308 70 0 69 0 3 303 c3 335 5 345 68 381 24 14 53 21 90 21 79 -1 134 -34 174 -105 l31 -55 3 -272 3 -273 70 0 69 0 0 405 0 405 -65 0 -65 0 0 -54 0 -55 -50 49 c-30 29 -68 54 -96 64 -58 20 -153 20 -217 0z"/>
 <path d="M9307 1336 c-39 -15 -55 -25 -99 -65 l-28 -25 0 42 0 42 -70 0 -70 0 0 -555 0 -555 70 0 70 0 0 196 0 197 49 -46 c67 -62 139 -84 232 -70 36 6 82 18 101 27 162 77 232 294 177 545 -24 108 -96 203 -191 252 -54 28 -184 36 -241 15z m145 -116 c48 -14 94 -52 117 -99 61 -119 49 -363 -22 -440 -31 -33 -95 -61 -143 -61 -144 -1 -214 102 -216 315 -2 120 17 187 66 234 55 53 124 71 198 51z"/>
 <path d="M10783 1332 c-93 -33 -174 -116 -208 -212 -40 -114 -38 -287 6 -406 29 -81 122 -173 199 -200 72 -24 197 -24 266 -1 101 35 175 127 190 236 l7 51 -70 0 -70 0 -7 -38 c-14 -89 -84 -144 -185 -144 -65 0 -91 10 -139 55 -85 81 -107 319 -42 447 54 106 193 139 290 70 29 -21 80 -111 80 -142 0 -16 9 -18 71 -18 l71 0 -7 37 c-22 119 -84 207 -180 253 -68 33 -197 39 -272 12z"/>
 <path d="M12594 1336 c-55 -18 -127 -70 -158 -115 -57 -82 -79 -150 -84 -261 -5 -124 7 -195 49 -279 70 -140 223 -211 389 -181 144 26 234 115 247 246 l6 54 -65 0 -64 0 -12 -45 c-27 -100 -126 -157 -234 -134 -63 14 -109 54 -139 121 -31 71 -39 248 -15 332 33 113 137 175 246 146 57 -15 113 -73 137 -140 l18 -50 64 0 64 0 -6 45 c-15 106 -89 205 -186 248 -58 26 -197 33 -257 13z"/>
 <path d="M14253 1336 c-161 -53 -263 -214 -263 -416 0 -313 249 -504 523 -400 202 77 291 352 195 608 -26 69 -110 157 -183 191 -62 30 -207 39 -272 17z m216 -136 c86 -43 124 -128 125 -280 1 -100 -1 -109 -32 -173 -24 -48 -45 -75 -73 -94 -116 -76 -261 -32 -320 99 -21 46 -24 68 -24 168 0 100 3 122 24 167 26 59 87 119 128 129 16 3 33 7 38 10 21 8 97 -7 134 -26z"/>
 <path d="M15113 1336 c-125 -39 -223 -158 -254 -306 -6 -31 -9 -95 -6 -145 11 -210 124 -352 307 -385 162 -29 315 41 387 177 43 82 56 150 51 279 -3 96 -7 117 -34 174 -53 111 -121 173 -224 204 -64 19 -169 20 -227 2z m224 -142 c160 -94 164 -439 6 -543 -82 -55 -199 -43 -265 26 -49 51 -71 118 -76 224 -5 124 12 188 69 252 69 80 174 96 266 41z"/>
 <path d="M310 915 l0 -415 -155 0 -155 0 0 -145 0 -145 485 0 485 0 0 145 0 145 -155 0 -155 0 0 415 0 415 -175 0 -175 0 0 -415z"/>
 <path d="M1020 770 l0 -560 470 0 470 0 0 145 0 145 -300 0 -300 0 0 70 0 70 300 0 300 0 0 135 0 135 -300 0 -300 0 0 65 0 65 300 0 300 0 0 145 0 145 -470 0 -470 0 0 -560z"/>
 <path d="M2010 771 l0 -561 289 0 c344 0 418 8 521 56 117 55 189 145 238 298 25 77 24 341 -2 416 -59 173 -135 251 -306 316 l-75 28 -332 4 -333 4 0 -561z m601 241 c68 -35 104 -91 119 -183 21 -136 -24 -243 -121 -292 -46 -23 -75 -30 -153 -34 l-96 -6 0 272 0 271 99 0 c89 0 104 -3 152 -28z"/>
 <path d="M4080 775 l0 -555 288 0 c332 0 360 5 437 72 63 56 85 104 85 194 0 89 -34 162 -98 211 l-41 31 53 30 c97 56 138 125 139 237 1 138 -58 233 -179 290 -81 39 -142 45 -426 45 l-258 0 0 -555z m582 405 c85 -24 134 -104 126 -205 -11 -131 -91 -164 -400 -165 l-148 0 0 190 0 190 193 0 c105 0 209 -5 229 -10z m-29 -511 c103 -35 142 -188 68 -268 -40 -43 -86 -51 -283 -51 l-178 0 0 171 0 171 178 -5 c106 -3 192 -10 215 -18z"/>
 <path d="M5100 925 l0 -405 75 0 75 0 0 405 0 405 -75 0 -75 0 0 -405z"/>
 <path d="M5460 925 l0 -405 70 0 70 0 0 54 0 55 52 -55 c40 -43 63 -58 105 -70 30 -9 65 -13 79 -10 23 6 24 11 24 76 l0 70 -28 0 c-53 0 -127 29 -159 62 -63 65 -67 86 -71 371 l-4 257 -69 0 -69 0 0 -405z"/>
 <path d="M5960 775 l0 -555 70 0 70 0 0 555 0 555 -70 0 -70 0 0 -555z"/>
 <path d="M7200 774 l0 -555 308 3 c282 3 310 5 347 23 71 35 113 74 142 133 24 49 28 69 28 142 -1 157 -46 243 -159 300 l-69 35 -223 3 -224 3 0 235 0 234 -75 0 -75 0 0 -556z m573 -73 c64 -31 91 -81 91 -172 0 -80 -22 -123 -79 -153 -36 -19 -60 -21 -237 -24 l-198 -3 0 191 0 191 188 -3 c173 -3 191 -5 235 -27z"/>
 <path d="M9920 775 l0 -555 70 0 70 0 0 555 0 555 -70 0 -70 0 0 -555z"/>
 <path d="M10260 925 l0 -405 70 0 70 0 0 405 0 405 -70 0 -70 0 0 -405z"/>
 <path d="M13180 775 l0 -555 70 0 70 0 0 195 0 196 34 -34 c129 -129 369 -106 451 43 l30 55 3 328 3 327 -70 0 -70 0 -3 -302 c-3 -327 -5 -341 -58 -380 -33 -24 -117 -34 -164 -18 -49 16 -102 63 -129 114 -21 39 -22 55 -25 314 l-3 272 -70 0 -69 0 0 -555z"/>
 <path d="M15760 775 l0 -555 70 0 70 0 0 555 0 555 -70 0 -70 0 0 -555z"/>
 <path d="M3231 724 l119 -176 -115 -169 -116 -169 130 0 130 0 42 75 c22 41 45 75 49 75 5 0 27 -34 50 -75 l41 -75 130 0 c101 0 129 3 123 13 -4 6 -57 83 -116 170 l-109 159 24 31 c13 18 68 96 121 175 l97 142 -130 0 -130 0 -48 -80 c-26 -43 -50 -79 -53 -79 -3 0 -25 34 -50 77 l-46 77 -131 3 -132 3 120 -177z"/>
 <path d="M5100 295 l0 -75 75 0 75 0 0 75 0 75 -75 0 -75 0 0 -75z"/>
 <path d="M10260 295 l0 -75 70 0 70 0 0 75 0 75 -70 0 -70 0 0 -75z"/>
 </g>
<g id="layer102" fill="#ffffff" stroke="none">
 <path d="M1620 1865 l0 -166 43 0 c23 0 63 -2 89 -5 43 -5 50 -3 77 23 49 49 50 163 2 207 -28 26 -86 32 -116 12 l-25 -16 0 55 0 55 -35 0 -35 0 0 -165z m161 9 c23 -28 17 -93 -10 -115 -29 -24 -36 -24 -61 1 -22 22 -27 78 -10 111 13 24 62 26 81 3z"/>
 <path d="M3490 2002 c0 -26 4 -31 27 -34 17 -2 29 -10 31 -21 2 -9 -15 -66 -37 -125 -23 -59 -41 -111 -41 -116 0 -4 17 -6 37 -4 36 3 37 4 62 78 l25 75 25 -77 25 -78 38 0 37 0 -28 78 c-16 42 -41 109 -56 149 -15 40 -33 77 -41 84 -8 6 -34 14 -59 17 -45 5 -45 4 -45 -26z"/>
 <path d="M4315 2005 c-36 -35 -33 -55 9 -55 21 0 36 6 40 15 8 23 73 20 86 -4 5 -11 10 -27 10 -35 0 -13 -4 -13 -35 0 -80 33 -140 -17 -140 -118 0 -55 3 -62 33 -89 37 -34 94 -39 124 -12 11 9 18 11 18 5 0 -7 15 -12 35 -12 l35 0 0 113 c0 185 -20 217 -135 217 -46 0 -60 -4 -80 -25z m126 -146 c36 -36 10 -119 -38 -119 -23 0 -53 39 -53 68 0 35 26 72 51 72 10 0 29 -10 40 -21z"/>
 <path d="M1124 1931 c-71 -44 -72 -176 -2 -225 26 -18 80 -21 109 -6 18 10 19 7 19 -45 l0 -55 35 0 35 0 0 170 0 171 -42 0 c-24 -1 -61 2 -83 5 -29 3 -48 0 -71 -15z m116 -60 c17 -33 12 -89 -10 -111 -24 -24 -29 -24 -57 -5 -29 20 -36 58 -19 100 12 29 20 35 45 35 20 0 34 -7 41 -19z"/>
 <path d="M1408 1935 c-38 -21 -58 -64 -58 -122 0 -55 17 -86 60 -108 84 -43 180 12 180 103 l0 32 -85 0 c-47 0 -85 3 -85 6 0 3 5 14 10 25 13 24 78 27 86 4 4 -9 19 -15 39 -15 28 0 32 3 28 19 -15 57 -116 89 -175 56z m112 -155 c0 -5 -11 -17 -25 -26 -23 -15 -27 -15 -50 0 -38 25 -30 36 25 36 28 0 50 -4 50 -10z"/>
 <path d="M1960 1943 c-80 -29 -101 -161 -36 -222 30 -28 95 -38 136 -21 34 14 70 73 70 115 0 25 -1 25 -85 25 -63 0 -85 3 -85 13 0 35 66 51 90 22 14 -17 70 -21 70 -4 0 53 -94 96 -160 72z m90 -168 c0 -23 -35 -37 -64 -25 -44 16 -33 40 19 40 33 0 45 -4 45 -15z"/>
 <path d="M2469 1935 c-28 -15 -59 -79 -59 -121 0 -37 25 -89 51 -108 27 -18 81 -21 110 -6 18 10 19 7 19 -45 l0 -55 35 0 35 0 0 170 0 171 -42 0 c-24 -1 -61 1 -83 4 -25 3 -50 0 -66 -10z m111 -64 c17 -33 12 -89 -10 -111 -24 -24 -29 -24 -57 -5 -51 36 -31 135 27 135 19 0 33 -7 40 -19z"/>
 <path d="M2748 1935 c-80 -45 -77 -189 4 -231 79 -41 178 12 178 96 l0 40 -85 0 c-47 0 -85 3 -85 6 0 3 5 14 10 25 13 24 78 27 86 4 7 -17 74 -21 74 -5 0 5 -13 24 -28 41 -23 26 -37 32 -78 35 -32 3 -58 -1 -76 -11z m112 -155 c0 -5 -11 -17 -25 -26 -23 -15 -27 -15 -50 0 -38 25 -30 36 25 36 28 0 50 -4 50 -10z"/>
 <path d="M3283 1940 c-33 -14 -43 -42 -43 -124 0 -69 -2 -76 -20 -76 -13 0 -20 -7 -20 -20 0 -13 7 -20 20 -20 17 0 20 -7 20 -40 l0 -40 40 0 40 0 0 40 c0 33 3 40 20 40 13 0 20 7 20 20 0 13 -7 20 -20 20 -18 0 -20 7 -20 75 0 69 2 75 21 75 16 0 20 5 17 28 -2 21 -9 27 -28 29 -14 1 -35 -2 -47 -7z"/>
 <path d="M3915 1940 c-59 -24 -92 -115 -65 -180 16 -39 67 -70 116 -70 80 0 126 48 126 128 -1 28 -6 61 -12 72 -26 48 -109 73 -165 50z m95 -69 c5 -11 10 -38 10 -60 0 -75 -75 -92 -101 -23 -11 27 -5 68 13 89 16 20 66 16 78 -6z"/>
 <path d="M4571 1933 c-16 -13 -23 -30 -24 -57 -1 -48 24 -71 89 -80 53 -7 75 -21 67 -42 -7 -19 -62 -18 -69 1 -7 17 -84 22 -84 6 0 -6 11 -23 24 -38 22 -26 30 -28 96 -28 100 0 110 13 110 147 l0 99 -47 -1 c-27 0 -68 3 -93 6 -36 4 -51 2 -69 -13z m128 -65 c9 -15 13 -30 9 -33 -10 -11 -79 7 -85 21 -18 49 50 59 76 12z"/>
 <path d="M5468 1935 c-80 -45 -77 -189 4 -231 79 -41 178 12 178 96 l0 40 -85 0 c-47 0 -85 3 -85 6 0 3 5 14 10 25 13 24 78 27 86 4 7 -17 74 -21 74 -5 0 5 -13 24 -28 41 -23 26 -37 32 -78 35 -32 3 -58 -1 -76 -11z m112 -155 c0 -5 -11 -17 -25 -26 -23 -15 -27 -15 -50 0 -38 25 -30 36 25 36 28 0 50 -4 50 -10z"/>
 <path d="M5730 1937 c-39 -19 -62 -73 -57 -136 3 -46 9 -59 36 -83 36 -32 84 -37 119 -12 l22 15 0 -60 0 -61 35 0 35 0 0 170 0 170 -35 0 c-19 0 -35 -5 -35 -11 0 -5 -10 -3 -22 5 -27 19 -64 20 -98 3z m106 -72 c30 -45 2 -125 -43 -125 -24 0 -53 39 -53 73 0 70 62 104 96 52z"/>
 <path d="M7139 1927 c-48 -32 -68 -95 -48 -151 26 -74 110 -107 180 -70 32 16 59 66 59 109 0 25 -1 25 -85 25 -63 0 -85 3 -85 13 0 35 66 51 90 22 7 -8 28 -15 47 -15 l35 0 -19 32 c-35 61 -113 76 -174 35z m112 -156 c-15 -27 -41 -34 -67 -16 -37 24 -29 35 26 35 47 0 50 -2 41 -19z"/>
 <path d="M7623 1935 c-83 -36 -85 -188 -3 -230 76 -39 162 -1 180 79 5 22 7 44 4 48 -3 4 -43 8 -89 8 -83 0 -84 0 -76 23 10 28 71 36 91 13 11 -14 70 -23 70 -11 0 21 -29 57 -55 70 -40 18 -80 19 -122 0z m107 -154 c0 -13 -29 -41 -41 -41 -18 0 -46 19 -53 35 -4 12 4 15 44 15 28 0 50 -4 50 -9z"/>
 <path d="M8165 1943 c-40 -10 -45 -23 -45 -114 0 -82 -2 -89 -20 -89 -13 0 -20 -7 -20 -20 0 -13 7 -20 20 -20 17 0 20 -7 20 -40 0 -39 1 -40 35 -40 34 0 35 1 35 40 0 36 3 40 25 40 18 0 25 5 25 20 0 15 -7 20 -25 20 -26 0 -26 1 -23 73 3 66 5 72 26 75 15 2 22 10 22 27 0 31 -24 40 -75 28z"/>
 <path d="M700 1820 l0 -120 35 0 35 0 0 120 0 120 -35 0 -35 0 0 -120z"/>
 <path d="M810 1820 l0 -120 35 0 c19 0 35 5 35 11 0 5 10 3 22 -5 32 -23 94 -20 118 4 17 17 20 33 20 125 l0 105 -35 0 -34 0 -3 -92 -3 -93 -29 -3 c-16 -2 -32 2 -37 10 -5 7 -9 50 -9 96 l0 82 -40 0 -40 0 0 -120z"/>
 <path d="M2150 1820 l0 -120 35 0 c19 0 35 5 35 11 0 5 10 3 22 -5 25 -18 80 -21 108 -6 27 15 40 64 40 156 l0 84 -40 0 -39 0 -3 -92 -3 -93 -29 -3 c-16 -2 -32 2 -37 10 -5 7 -9 50 -9 96 l0 82 -40 0 -40 0 0 -120z"/>
 <path d="M2960 1819 l0 -122 45 5 c25 3 48 2 51 -3 3 -5 23 -9 45 -9 29 0 47 7 64 25 23 22 25 31 25 125 l0 100 -35 0 -35 0 0 -76 c0 -86 -11 -114 -43 -114 -39 0 -47 19 -47 107 l0 83 -35 0 -35 0 0 -121z"/>
 <path d="M3380 1770 l0 -170 40 0 40 0 0 170 0 170 -40 0 -40 0 0 -170z"/>
 <path d="M4110 1820 l0 -120 35 0 c25 0 35 4 35 16 0 13 5 12 26 -5 15 -12 37 -21 50 -21 21 0 24 5 24 35 0 32 -2 35 -29 35 -48 0 -61 22 -61 106 l0 74 -40 0 -40 0 0 -120z"/>
 <path d="M4810 1820 l0 -120 35 0 c19 0 35 5 35 11 0 5 10 3 22 -5 25 -18 80 -21 108 -6 27 15 40 64 40 156 l0 84 -35 0 -35 0 0 -69 c0 -88 -12 -121 -43 -121 -39 0 -47 18 -47 107 l0 83 -40 0 -40 0 0 -120z"/>
 <path d="M5070 1820 l0 -120 40 0 40 0 0 120 0 120 -40 0 -40 0 0 -120z"/>
 <path d="M5170 1914 c0 -18 19 -48 61 -95 l61 -69 -56 0 c-53 0 -56 -1 -56 -25 l0 -25 105 0 105 0 0 26 c0 17 -16 42 -46 74 -26 27 -53 58 -61 70 -14 20 -13 20 51 20 64 0 66 1 66 25 l0 25 -115 0 -115 0 0 -26z"/>
 <path d="M6160 1805 l0 -135 -50 0 -50 0 0 -35 0 -35 140 0 140 0 0 35 0 35 -50 0 -50 0 0 135 0 135 -40 0 -40 0 0 -135z"/>
 <path d="M6360 1770 l0 -170 125 0 125 0 0 35 0 35 -85 0 -85 0 0 35 0 35 80 0 80 0 0 30 0 30 -80 0 -80 0 0 35 0 35 90 0 90 0 0 35 0 35 -130 0 -130 0 0 -170z"/>
 <path d="M6650 1770 l0 -170 73 0 c134 0 195 33 217 118 21 83 -11 177 -70 207 -20 10 -60 15 -125 15 l-95 0 0 -170z m180 90 c27 -15 42 -77 29 -123 -13 -46 -42 -67 -96 -67 l-43 0 0 100 0 100 46 0 c25 0 54 -5 64 -10z"/>
 <path d="M7363 1820 l-42 -120 39 0 39 0 22 69 c13 39 26 68 29 66 4 -2 15 -34 25 -70 17 -64 18 -65 51 -65 19 0 34 3 34 7 0 4 -17 58 -37 120 l-37 113 -41 0 -40 0 -42 -120z"/>
 <path d="M7830 1820 l0 -120 35 0 c19 0 35 5 35 11 0 5 10 3 22 -5 34 -24 85 -20 113 9 23 22 25 31 25 125 l0 100 -35 0 -35 0 0 -79 c0 -99 -4 -111 -41 -111 -38 0 -49 28 -49 121 l0 69 -35 0 -35 0 0 -120z"/>
 <path d="M350 1870 l0 -30 120 0 120 0 0 30 0 30 -120 0 -120 0 0 -30z"/>
 <path d="M350 1770 l0 -30 120 0 120 0 0 30 0 30 -120 0 -120 0 0 -30z"/>
 <path d="M700 1630 c0 -28 3 -30 35 -30 32 0 35 2 35 30 0 28 -3 30 -35 30 -32 0 -35 -2 -35 -30z"/>
 <path d="M5070 1630 c0 -28 2 -30 40 -30 38 0 40 2 40 30 0 28 -2 30 -40 30 -38 0 -40 -2 -40 -30z"/>
 <path d="M11655 1343 c-173 -37 -290 -157 -303 -310 l-5 -63 69 0 69 0 13 52 c15 64 46 111 94 143 107 71 333 73 432 2 41 -29 70 -99 62 -149 -17 -102 -54 -124 -329 -192 -208 -51 -270 -77 -316 -133 -42 -50 -54 -102 -48 -194 6 -91 36 -158 96 -212 85 -77 174 -102 338 -95 95 4 117 8 174 35 36 16 82 45 102 62 44 39 93 137 103 203 l6 48 -76 0 c-72 0 -76 -1 -76 -22 -1 -63 -64 -143 -138 -173 -88 -37 -252 -25 -322 25 -37 26 -62 83 -63 141 -1 89 47 118 293 174 323 74 403 143 404 346 0 63 -5 86 -28 132 -78 159 -304 233 -551 180z"/>
 <path d="M6418 1338 c-49 -13 -116 -72 -139 -122 -21 -46 -25 -131 -8 -189 14 -51 73 -115 129 -139 25 -11 110 -28 190 -39 80 -11 153 -22 163 -25 11 -3 25 -21 33 -40 17 -41 6 -100 -24 -127 -49 -45 -168 -62 -235 -33 -41 17 -83 66 -92 106 -6 30 -7 30 -71 30 -73 0 -74 -2 -49 -88 20 -66 79 -124 155 -154 75 -28 231 -31 309 -4 72 25 134 86 149 148 8 30 12 139 12 296 0 274 1 279 60 270 l30 -5 0 54 c0 49 -2 53 -27 60 -85 23 -162 -4 -189 -67 l-18 -40 -25 23 c-92 85 -230 118 -353 85z m252 -133 c44 -22 88 -62 106 -98 8 -15 17 -63 21 -107 l6 -81 -28 11 c-15 6 -73 17 -129 26 -134 20 -173 32 -207 67 -23 23 -29 37 -29 73 0 55 21 98 58 119 36 20 154 15 202 -10z"/>
 <path d="M8357 1334 c-65 -20 -121 -78 -141 -145 -13 -43 -16 -111 -16 -361 l0 -308 70 0 69 0 3 303 c3 335 5 345 68 381 24 14 53 21 90 21 79 -1 134 -34 174 -105 l31 -55 3 -272 3 -273 70 0 69 0 0 405 0 405 -65 0 -65 0 0 -54 0 -55 -50 49 c-30 29 -68 54 -96 64 -58 20 -153 20 -217 0z"/>
 <path d="M9307 1336 c-39 -15 -55 -25 -99 -65 l-28 -25 0 42 0 42 -70 0 -70 0 0 -555 0 -555 70 0 70 0 0 196 0 197 49 -46 c67 -62 139 -84 232 -70 36 6 82 18 101 27 162 77 232 294 177 545 -24 108 -96 203 -191 252 -54 28 -184 36 -241 15z m145 -116 c48 -14 94 -52 117 -99 61 -119 49 -363 -22 -440 -31 -33 -95 -61 -143 -61 -144 -1 -214 102 -216 315 -2 120 17 187 66 234 55 53 124 71 198 51z"/>
 <path d="M10783 1332 c-93 -33 -174 -116 -208 -212 -40 -114 -38 -287 6 -406 29 -81 122 -173 199 -200 72 -24 197 -24 266 -1 101 35 175 127 190 236 l7 51 -70 0 -70 0 -7 -38 c-14 -89 -84 -144 -185 -144 -65 0 -91 10 -139 55 -85 81 -107 319 -42 447 54 106 193 139 290 70 29 -21 80 -111 80 -142 0 -16 9 -18 71 -18 l71 0 -7 37 c-22 119 -84 207 -180 253 -68 33 -197 39 -272 12z"/>
 <path d="M12594 1336 c-55 -18 -127 -70 -158 -115 -57 -82 -79 -150 -84 -261 -5 -124 7 -195 49 -279 70 -140 223 -211 389 -181 144 26 234 115 247 246 l6 54 -65 0 -64 0 -12 -45 c-27 -100 -126 -157 -234 -134 -63 14 -109 54 -139 121 -31 71 -39 248 -15 332 33 113 137 175 246 146 57 -15 113 -73 137 -140 l18 -50 64 0 64 0 -6 45 c-15 106 -89 205 -186 248 -58 26 -197 33 -257 13z"/>
 <path d="M14253 1336 c-161 -53 -263 -214 -263 -416 0 -313 249 -504 523 -400 202 77 291 352 195 608 -26 69 -110 157 -183 191 -62 30 -207 39 -272 17z m216 -136 c86 -43 124 -128 125 -280 1 -100 -1 -109 -32 -173 -24 -48 -45 -75 -73 -94 -116 -76 -261 -32 -320 99 -21 46 -24 68 -24 168 0 100 3 122 24 167 26 59 87 119 128 129 16 3 33 7 38 10 21 8 97 -7 134 -26z"/>
 <path d="M15113 1336 c-125 -39 -223 -158 -254 -306 -6 -31 -9 -95 -6 -145 11 -210 124 -352 307 -385 162 -29 315 41 387 177 43 82 56 150 51 279 -3 96 -7 117 -34 174 -53 111 -121 173 -224 204 -64 19 -169 20 -227 2z m224 -142 c160 -94 164 -439 6 -543 -82 -55 -199 -43 -265 26 -49 51 -71 118 -76 224 -5 124 12 188 69 252 69 80 174 96 266 41z"/>
 <path d="M4080 775 l0 -555 288 0 c332 0 360 5 437 72 63 56 85 104 85 194 0 89 -34 162 -98 211 l-41 31 53 30 c97 56 138 125 139 237 1 138 -58 233 -179 290 -81 39 -142 45 -426 45 l-258 0 0 -555z m582 405 c85 -24 134 -104 126 -205 -11 -131 -91 -164 -400 -165 l-148 0 0 190 0 190 193 0 c105 0 209 -5 229 -10z m-29 -511 c103 -35 142 -188 68 -268 -40 -43 -86 -51 -283 -51 l-178 0 0 171 0 171 178 -5 c106 -3 192 -10 215 -18z"/>
 <path d="M5100 925 l0 -405 75 0 75 0 0 405 0 405 -75 0 -75 0 0 -405z"/>
 <path d="M5460 925 l0 -405 70 0 70 0 0 54 0 55 52 -55 c40 -43 63 -58 105 -70 30 -9 65 -13 79 -10 23 6 24 11 24 76 l0 70 -28 0 c-53 0 -127 29 -159 62 -63 65 -67 86 -71 371 l-4 257 -69 0 -69 0 0 -405z"/>
 <path d="M5960 775 l0 -555 70 0 70 0 0 555 0 555 -70 0 -70 0 0 -555z"/>
 <path d="M7200 774 l0 -555 308 3 c282 3 310 5 347 23 71 35 113 74 142 133 24 49 28 69 28 142 -1 157 -46 243 -159 300 l-69 35 -223 3 -224 3 0 235 0 234 -75 0 -75 0 0 -556z m573 -73 c64 -31 91 -81 91 -172 0 -80 -22 -123 -79 -153 -36 -19 -60 -21 -237 -24 l-198 -3 0 191 0 191 188 -3 c173 -3 191 -5 235 -27z"/>
 <path d="M9920 775 l0 -555 70 0 70 0 0 555 0 555 -70 0 -70 0 0 -555z"/>
 <path d="M10260 925 l0 -405 70 0 70 0 0 405 0 405 -70 0 -70 0 0 -405z"/>
 <path d="M13180 775 l0 -555 70 0 70 0 0 195 0 196 34 -34 c129 -129 369 -106 451 43 l30 55 3 328 3 327 -70 0 -70 0 -3 -302 c-3 -327 -5 -341 -58 -380 -33 -24 -117 -34 -164 -18 -49 16 -102 63 -129 114 -21 39 -22 55 -25 314 l-3 272 -70 0 -69 0 0 -555z"/>
 <path d="M15760 775 l0 -555 70 0 70 0 0 555 0 555 -70 0 -70 0 0 -555z"/>
 <path d="M5100 295 l0 -75 75 0 75 0 0 75 0 75 -75 0 -75 0 0 -75z"/>
 <path d="M10260 295 l0 -75 70 0 70 0 0 75 0 75 -70 0 -70 0 0 -75z"/>
 </g>

</svg>