<!DOCTYPE svg PUBLIC "-//W3C//DTD SVG 20010904//EN" "http://www.w3.org/TR/2001/REC-SVG-20010904/DTD/svg10.dtd">
<svg version="1.0" xmlns="http://www.w3.org/2000/svg" width="1600px" height="432px" viewBox="0 0 16000 4320" preserveAspectRatio="xMidYMid meet">
<g id="layer101" fill="#ff2b06" stroke="none">
 <path d="M5775 4308 c-38 -21 -65 -52 -65 -75 0 -20 5 -23 40 -23 28 0 46 7 64 25 14 14 35 25 46 25 29 0 70 -44 70 -75 0 -25 -1 -25 -30 -10 -69 35 -151 11 -185 -55 -24 -46 -20 -150 8 -191 44 -66 140 -87 189 -42 17 15 18 15 18 0 0 -13 10 -17 45 -17 l45 0 0 173 c0 196 -9 229 -70 259 -40 20 -143 24 -175 6z m126 -207 c19 -16 24 -29 24 -69 0 -59 -24 -92 -66 -92 -43 0 -72 44 -66 100 8 71 60 100 108 61z"/>
 <path d="M2150 4090 l0 -220 45 0 c32 0 45 4 45 14 0 11 8 10 38 -6 44 -23 102 -19 141 9 62 46 85 171 45 248 -35 66 -119 94 -184 60 l-30 -16 0 66 0 65 -50 0 -50 0 0 -220z m211 31 c21 -16 24 -28 24 -81 0 -53 -3 -65 -24 -81 -31 -25 -59 -24 -88 3 -34 32 -33 119 2 153 29 30 55 32 86 6z"/>
 <path d="M4640 4270 c0 -39 1 -40 35 -40 59 0 59 -18 -6 -190 -32 -85 -58 -158 -59 -162 0 -5 22 -8 49 -8 l48 0 33 93 c17 50 35 98 39 105 4 8 21 -31 39 -93 l33 -105 50 0 c45 0 50 2 44 18 -3 9 -34 91 -67 182 -89 243 -87 240 -182 240 l-56 0 0 -40z"/>
 <path d="M1515 4201 c-28 -12 -62 -51 -74 -84 -17 -45 -13 -138 8 -177 36 -68 111 -97 172 -66 17 9 34 16 36 16 1 0 3 -31 3 -70 l0 -70 50 0 50 0 0 225 0 225 -45 0 c-35 0 -45 -4 -45 -17 0 -14 -2 -14 -20 2 -22 20 -104 30 -135 16z m117 -81 c48 -37 43 -149 -8 -172 -33 -15 -74 0 -92 32 -21 40 -9 110 23 137 32 28 45 29 77 3z"/>
 <path d="M1885 4196 c-53 -24 -95 -92 -95 -156 0 -51 38 -127 75 -150 110 -68 234 -4 252 130 l6 40 -117 0 c-114 0 -117 1 -114 21 8 52 83 73 122 34 15 -15 96 -21 96 -7 0 21 -42 71 -73 85 -42 20 -110 21 -152 3z m135 -206 c0 -19 -40 -50 -65 -50 -25 0 -65 31 -65 50 0 6 28 10 65 10 37 0 65 -4 65 -10z"/>
 <path d="M2590 4192 c-126 -62 -112 -263 22 -317 106 -42 218 35 218 149 l0 36 -116 0 c-115 0 -115 0 -109 23 4 12 13 29 21 37 19 20 79 18 102 -4 14 -12 32 -16 62 -14 l42 3 -24 35 c-44 66 -142 89 -218 52z m140 -204 c0 -21 -33 -48 -59 -48 -32 0 -44 8 -60 38 -12 22 -11 22 54 22 43 0 65 -4 65 -12z"/>
 <path d="M3282 4190 c-66 -40 -92 -161 -53 -247 34 -73 113 -101 184 -65 l37 20 0 -74 0 -74 45 0 45 0 0 225 0 225 -45 0 c-25 0 -45 -5 -45 -10 0 -6 -13 -4 -30 5 -40 21 -99 19 -138 -5z m121 -59 c71 -27 54 -191 -20 -191 -40 0 -62 18 -73 61 -13 49 1 101 33 124 25 18 28 18 60 6z"/>
 <path d="M3660 4191 c-49 -26 -72 -62 -78 -120 -6 -71 5 -116 38 -154 52 -60 156 -72 215 -25 34 27 65 89 65 133 l0 35 -115 0 c-125 0 -134 5 -96 51 23 28 81 31 109 5 14 -12 32 -16 62 -14 l42 3 -24 35 c-45 67 -145 90 -218 51z m140 -203 c0 -21 -33 -48 -58 -48 -25 0 -72 34 -72 52 0 4 29 8 65 8 43 0 65 -4 65 -12z"/>
 <path d="M4381 4200 c-59 -14 -66 -29 -69 -150 -4 -109 -4 -110 -28 -110 -21 0 -24 -5 -24 -35 0 -31 3 -35 25 -35 23 0 25 -4 25 -45 l0 -45 50 0 50 0 0 45 c0 45 0 45 35 45 33 0 35 2 35 35 0 33 -2 35 -35 35 l-35 0 0 79 c0 99 5 111 41 111 26 0 29 3 29 35 0 21 -5 35 -12 35 -7 0 -22 2 -33 4 -11 3 -35 1 -54 -4z"/>
 <path d="M5192 4189 c-60 -30 -85 -82 -80 -164 6 -104 64 -159 168 -159 71 -1 116 25 148 84 20 38 23 55 19 104 -9 96 -60 147 -154 153 -45 3 -68 -1 -101 -18z m133 -74 c53 -52 22 -175 -45 -175 -67 0 -98 123 -45 175 31 32 59 32 90 0z"/>
 <path d="M6104 4200 c-47 -19 -69 -92 -43 -142 12 -22 66 -48 101 -48 49 0 98 -20 98 -40 0 -43 -78 -51 -100 -10 -8 15 -21 20 -55 20 -49 0 -54 -9 -34 -53 31 -68 192 -88 257 -32 26 22 27 27 32 164 l5 141 -47 0 c-25 0 -48 -5 -50 -11 -2 -6 -14 -5 -33 5 -32 17 -97 20 -131 6z m138 -77 c10 -9 18 -28 18 -43 0 -27 -1 -27 -42 -19 -24 4 -46 8 -50 9 -4 0 -12 9 -18 21 -24 43 51 69 92 32z"/>
 <path d="M7280 4192 c-96 -48 -116 -189 -39 -277 52 -59 155 -70 214 -23 34 27 65 89 65 133 l0 35 -115 0 c-107 0 -115 1 -115 19 0 11 12 29 27 41 31 24 74 22 104 -6 11 -10 31 -14 59 -12 l42 3 -24 35 c-30 44 -80 70 -138 70 -25 0 -61 -8 -80 -18z m140 -204 c0 -44 -75 -63 -110 -28 -33 33 -24 40 45 40 43 0 65 -4 65 -12z"/>
 <path d="M7613 4190 c-39 -24 -62 -66 -70 -128 -16 -140 89 -238 197 -184 l40 19 0 -73 0 -74 50 0 50 0 0 225 0 225 -45 0 c-33 0 -45 -4 -45 -15 0 -12 -6 -11 -32 5 -42 25 -104 26 -145 0z m137 -68 c34 -28 40 -117 10 -154 -26 -34 -65 -36 -97 -6 -34 32 -33 119 2 153 29 30 55 32 85 7z"/>
 <path d="M9510 4192 c-92 -46 -116 -186 -45 -270 53 -63 160 -77 220 -31 34 28 65 90 65 134 l0 35 -116 0 c-115 0 -115 0 -109 23 4 12 13 29 21 37 19 20 79 18 102 -4 14 -12 32 -16 62 -14 l42 3 -24 35 c-44 66 -142 89 -218 52z m140 -204 c0 -21 -33 -48 -59 -48 -32 0 -44 8 -60 38 -12 22 -11 22 54 22 43 0 65 -4 65 -12z"/>
 <path d="M10136 4187 c-57 -32 -78 -77 -74 -157 4 -81 31 -124 96 -152 105 -47 203 16 227 145 l7 37 -122 0 c-121 0 -121 0 -115 23 4 12 13 29 21 37 19 20 79 18 102 -4 14 -12 32 -16 62 -14 l42 3 -24 35 c-47 70 -146 91 -222 47z m144 -199 c0 -41 -74 -64 -102 -30 -34 39 -32 42 36 42 44 0 66 -4 66 -12z"/>
 <path d="M10863 4200 c-60 -14 -63 -21 -63 -146 l0 -114 -30 0 c-28 0 -30 -3 -30 -35 0 -32 2 -35 30 -35 29 0 30 -2 30 -45 l0 -45 45 0 45 0 0 45 c0 45 0 45 35 45 33 0 35 2 35 35 0 33 -2 35 -35 35 l-35 0 0 83 c0 89 8 107 47 107 20 0 23 5 23 35 0 21 -5 35 -12 35 -7 0 -22 2 -33 4 -11 3 -35 1 -52 -4z"/>
 <path d="M37 4187 c4 -7 30 -45 57 -85 l49 -72 -45 -67 c-25 -38 -48 -74 -52 -80 -5 -10 7 -13 48 -13 54 0 56 1 78 40 13 22 25 40 28 40 3 0 15 -18 28 -40 22 -39 24 -40 78 -40 41 0 53 3 48 13 -4 6 -27 40 -51 74 -24 34 -43 66 -43 71 0 5 18 35 41 67 22 32 48 69 56 82 l15 23 -55 0 c-55 0 -55 -1 -84 -45 -15 -25 -30 -45 -33 -45 -3 0 -18 20 -33 45 -28 44 -30 45 -83 45 -42 0 -53 -3 -47 -13z"/>
 <path d="M940 4035 l0 -165 45 0 45 0 0 165 0 165 -45 0 -45 0 0 -165z"/>
 <path d="M1080 4035 l0 -165 45 0 c39 0 45 3 45 21 0 19 1 19 17 4 43 -44 133 -43 174 1 23 24 24 34 27 165 l4 139 -51 0 -51 0 0 -114 c0 -91 -3 -118 -16 -130 -21 -22 -50 -20 -74 4 -18 18 -20 33 -20 130 l0 110 -50 0 -50 0 0 -165z"/>
 <path d="M2860 4035 l0 -165 50 0 c36 0 50 4 50 14 0 11 8 10 37 -5 21 -10 48 -19 60 -19 41 0 93 28 103 55 6 15 10 85 10 156 l0 129 -45 0 -45 0 0 -110 c0 -97 -2 -112 -20 -130 -24 -24 -49 -25 -76 -6 -16 13 -19 29 -22 130 l-4 116 -49 0 -49 0 0 -165z"/>
 <path d="M3940 4035 l0 -165 45 0 c32 0 45 4 45 14 0 11 8 10 37 -5 43 -22 54 -23 105 -8 58 16 68 44 68 199 l0 130 -45 0 -45 0 0 -110 c0 -97 -2 -112 -20 -130 -26 -26 -46 -25 -75 5 -23 23 -25 31 -25 130 l0 105 -45 0 -45 0 0 -165z"/>
 <path d="M4500 3975 l0 -225 50 0 50 0 0 225 0 225 -50 0 -50 0 0 -225z"/>
 <path d="M5470 4035 l0 -165 45 0 c42 0 45 2 45 27 l0 26 23 -21 c23 -22 68 -42 93 -42 10 0 14 13 14 49 l0 49 -37 0 c-28 0 -43 7 -60 27 -20 23 -23 37 -23 121 l0 94 -50 0 -50 0 0 -165z"/>
 <path d="M6400 4035 l0 -165 50 0 c36 0 50 4 50 14 0 11 8 10 37 -5 43 -22 67 -24 112 -8 51 18 61 50 61 199 l0 130 -45 0 -45 0 0 -110 c0 -97 -2 -112 -20 -130 -25 -25 -41 -25 -71 -1 -22 18 -24 28 -27 130 l-4 111 -49 0 -49 0 0 -165z"/>
 <path d="M6750 4035 l0 -165 50 0 50 0 0 165 0 165 -50 0 -50 0 0 -165z"/>
 <path d="M6880 4164 c0 -32 11 -48 75 -119 41 -46 75 -86 75 -89 0 -3 -31 -6 -70 -6 l-70 0 0 -40 0 -40 140 0 140 0 0 38 c0 33 -10 49 -81 130 l-80 92 85 0 86 0 0 35 0 35 -150 0 -150 0 0 -36z"/>
 <path d="M8190 4020 l0 -180 -65 0 -65 0 0 -45 0 -45 185 0 185 0 0 45 0 45 -65 0 -65 0 0 180 0 180 -55 0 -55 0 0 -180z"/>
 <path d="M8460 3975 l0 -225 170 0 170 0 0 45 0 45 -120 0 -120 0 0 45 0 45 110 0 110 0 0 40 0 40 -110 0 -110 0 0 50 0 50 125 0 125 0 0 45 0 45 -175 0 -175 0 0 -225z"/>
 <path d="M8840 3975 l0 -225 123 0 c138 0 183 14 230 69 66 79 64 238 -6 318 -48 54 -79 63 -222 63 l-125 0 0 -225z m253 114 c31 -24 51 -87 42 -132 -18 -91 -49 -117 -140 -117 l-55 0 0 135 0 135 64 0 c49 0 69 -5 89 -21z"/>
 <path d="M9840 4168 c-27 -77 -100 -291 -100 -294 0 -2 22 -4 50 -4 l49 0 33 107 33 106 35 -106 35 -107 48 0 c43 0 48 2 42 18 -4 9 -12 33 -17 52 -6 19 -28 86 -50 148 l-40 112 -53 0 c-51 0 -54 -1 -65 -32z"/>
 <path d="M10420 4035 l0 -165 45 0 c32 0 45 4 45 14 0 11 8 10 37 -5 21 -10 48 -19 60 -19 41 0 93 28 103 55 6 15 10 85 10 156 l0 129 -45 0 -45 0 0 -110 c0 -97 -2 -112 -20 -130 -25 -25 -41 -25 -71 -1 -22 18 -24 28 -27 130 l-4 111 -44 0 -44 0 0 -165z"/>
 <path d="M470 4105 l0 -35 160 0 160 0 0 35 0 35 -160 0 -160 0 0 -35z"/>
 <path d="M470 3975 l0 -35 160 0 160 0 0 35 0 35 -160 0 -160 0 0 -35z"/>
 <path d="M940 3790 l0 -40 45 0 45 0 0 40 0 40 -45 0 -45 0 0 -40z"/>
 <path d="M6750 3790 l0 -40 50 0 50 0 0 40 0 40 -50 0 -50 0 0 -40z"/>
 <path d="M10203 3361 c-95 -23 -185 -69 -250 -126 -81 -72 -143 -214 -143 -331 l0 -34 94 0 94 0 7 43 c13 75 45 135 101 186 75 69 142 92 278 99 191 8 315 -31 373 -120 38 -57 45 -158 14 -220 -38 -79 -130 -118 -471 -198 -325 -77 -418 -150 -437 -345 -15 -165 72 -337 211 -419 95 -56 159 -70 321 -70 175 -1 249 16 350 82 124 80 186 182 209 340 l6 42 -99 0 -98 0 -7 -41 c-14 -87 -83 -171 -172 -210 -95 -43 -284 -42 -381 1 -98 43 -150 130 -141 232 11 107 65 137 398 219 348 85 428 127 492 257 32 64 33 71 33 187 0 100 -4 129 -22 175 -49 119 -166 208 -329 250 -103 27 -325 27 -431 1z"/>
 <path d="M3253 3356 c-88 -29 -148 -81 -185 -161 -32 -71 -32 -208 1 -281 27 -62 79 -114 146 -147 69 -35 106 -43 293 -67 171 -22 200 -29 220 -53 40 -48 30 -142 -20 -194 -41 -43 -105 -63 -198 -63 -129 0 -215 61 -236 168 l-6 32 -86 0 -85 0 5 -48 c6 -59 44 -146 86 -193 66 -75 193 -118 350 -119 164 0 278 45 349 138 54 71 56 88 60 470 5 346 5 352 26 367 14 10 33 13 54 9 l33 -6 0 70 0 71 -55 11 c-77 16 -149 0 -192 -42 -18 -18 -33 -35 -33 -39 0 -4 -4 -19 -10 -33 l-9 -26 -65 49 c-96 73 -158 94 -291 98 -73 2 -124 -2 -152 -11z m310 -162 c56 -19 140 -92 167 -144 22 -44 40 -240 22 -240 -6 0 -23 5 -38 10 -15 6 -90 20 -167 31 -168 25 -235 48 -276 95 -27 30 -31 43 -31 90 0 92 31 142 107 170 46 17 147 12 216 -12z"/>
 <path d="M5857 3360 c-97 -25 -179 -98 -212 -192 -17 -48 -19 -94 -23 -480 l-3 -428 95 0 95 0 3 403 c3 397 3 403 26 449 32 65 75 90 167 96 62 4 81 1 127 -20 91 -42 151 -137 168 -270 5 -40 10 -205 10 -365 l0 -293 95 0 95 0 0 540 0 540 -95 0 -95 0 0 -66 0 -67 -52 53 c-78 79 -140 104 -263 107 -55 1 -117 -2 -138 -7z"/>
 <path d="M7103 3356 c-58 -19 -105 -50 -147 -96 l-36 -40 0 60 0 60 -90 0 -90 0 0 -740 0 -740 95 0 95 0 0 265 0 266 53 -54 c28 -29 75 -64 102 -77 44 -22 63 -25 160 -24 87 0 121 5 163 22 135 53 229 173 269 342 20 87 13 340 -12 420 -50 157 -129 260 -244 313 -57 27 -77 31 -170 34 -71 2 -120 -2 -148 -11z m209 -162 c131 -51 197 -211 185 -444 -6 -124 -26 -194 -70 -252 -48 -63 -111 -91 -205 -92 -178 -1 -257 95 -282 342 -25 242 45 409 188 452 46 14 140 11 184 -6z"/>
 <path d="M9087 3359 c-153 -36 -278 -177 -324 -366 -25 -104 -22 -296 6 -398 65 -235 231 -365 465 -365 225 0 383 118 425 318 18 88 23 83 -81 80 l-92 -3 -8 -38 c-25 -119 -117 -189 -248 -189 -85 0 -141 24 -193 81 -75 83 -102 190 -95 369 11 229 91 345 250 359 138 13 239 -62 283 -212 l12 -40 92 -3 c50 -1 91 1 91 5 0 4 -7 36 -15 69 -53 228 -205 346 -439 343 -50 -1 -108 -5 -129 -10z"/>
 <path d="M11487 3359 c-108 -26 -222 -121 -276 -231 -51 -105 -65 -177 -65 -328 0 -195 27 -282 125 -406 82 -104 180 -152 326 -161 152 -10 276 30 356 116 66 71 91 126 111 249 l6 32 -90 0 -89 0 -15 -52 c-35 -119 -116 -180 -243 -180 -118 -1 -198 52 -247 162 -37 83 -49 159 -43 285 10 233 91 350 251 362 133 11 231 -58 276 -192 l22 -65 89 0 89 0 -6 28 c-49 224 -138 333 -309 378 -56 15 -209 17 -268 3z"/>
 <path d="M13697 3360 c-201 -51 -342 -231 -367 -472 -17 -165 19 -341 89 -438 109 -153 234 -220 406 -220 148 0 261 46 349 141 110 118 156 245 156 428 0 134 -19 222 -67 313 -52 100 -124 170 -219 215 -74 35 -83 37 -193 40 -64 1 -133 -2 -154 -7z m214 -160 c155 -43 250 -251 219 -482 -27 -203 -136 -319 -301 -320 -173 -1 -288 133 -305 356 -17 221 73 400 226 447 37 11 120 10 161 -1z"/>
 <path d="M14814 3350 c-215 -69 -343 -270 -344 -543 -1 -345 200 -577 499 -577 195 0 346 90 435 259 49 93 66 173 66 312 0 132 -22 237 -67 322 -34 64 -134 167 -190 196 -106 53 -283 67 -399 31z m283 -168 c113 -58 183 -200 183 -373 0 -256 -117 -411 -310 -411 -87 0 -141 24 -198 86 -58 63 -89 135 -104 234 -31 222 65 433 220 483 47 15 163 4 209 -19z"/>
 <path d="M150 2600 l0 -740 361 0 c398 0 451 6 546 60 64 37 125 112 148 180 26 77 18 208 -17 282 -27 57 -105 142 -141 154 -16 5 -8 13 44 40 81 43 133 94 167 164 25 50 27 65 27 171 0 113 -1 116 -38 191 -42 86 -89 133 -179 179 -107 54 -148 59 -550 59 l-368 0 0 -740z m709 559 c102 -16 163 -56 204 -134 16 -31 21 -59 21 -121 1 -72 -2 -85 -29 -130 -59 -96 -132 -114 -466 -114 l-239 0 0 255 0 255 223 0 c122 0 251 -5 286 -11z m14 -688 c58 -19 113 -74 133 -133 31 -95 4 -210 -61 -252 -56 -37 -131 -46 -367 -46 l-228 0 0 226 0 226 243 -5 c153 -2 256 -8 280 -16z"/>
 <path d="M1510 2800 l0 -540 90 0 90 0 0 540 0 540 -90 0 -90 0 0 -540z"/>
 <path d="M1980 2800 l0 -540 90 0 90 0 1 88 c0 71 2 84 12 68 37 -60 99 -123 146 -149 44 -25 66 -31 120 -31 l66 -1 3 96 3 96 -66 6 c-123 12 -205 70 -247 176 -21 53 -23 71 -26 394 l-3 337 -95 0 -94 0 0 -540z"/>
 <path d="M2650 2600 l0 -740 95 0 95 0 0 740 0 740 -95 0 -95 0 0 -740z"/>
 <path d="M4290 2600 l0 -740 359 0 c197 0 380 4 407 9 241 46 358 213 333 473 -19 191 -129 320 -310 363 -48 11 -128 15 -326 15 l-263 0 0 310 0 310 -100 0 -100 0 0 -740z m760 -84 c19 -10 46 -28 58 -40 80 -72 95 -257 30 -349 -12 -16 -46 -41 -77 -56 -55 -26 -60 -26 -313 -29 l-258 -3 0 251 0 251 263 -3 c233 -3 266 -5 297 -22z"/>
 <path d="M7910 2600 l0 -740 90 0 90 0 0 740 0 740 -90 0 -90 0 0 -740z"/>
 <path d="M8370 2800 l0 -540 90 0 90 0 0 540 0 540 -90 0 -90 0 0 -540z"/>
 <path d="M12240 2600 l0 -740 95 0 95 0 0 267 0 267 46 -48 c151 -158 453 -153 576 9 70 92 71 100 76 568 l3 417 -95 0 -95 0 -3 -392 -3 -393 -25 -49 c-31 -62 -59 -83 -131 -97 -108 -21 -226 25 -284 112 -58 88 -59 95 -63 472 l-3 347 -95 0 -94 0 0 -740z"/>
 <path d="M15680 2600 l0 -740 95 0 95 0 0 740 0 740 -95 0 -95 0 0 -740z"/>
 <path d="M1510 1965 l0 -105 95 0 95 0 0 105 0 105 -95 0 -95 0 0 -105z"/>
 <path d="M8360 1965 l0 -105 95 0 95 0 0 105 0 105 -95 0 -95 0 0 -105z"/>
 <path d="M410 935 l0 -555 -205 0 -205 0 0 -190 0 -190 645 0 645 0 0 190 0 190 -205 0 -205 0 0 555 0 555 -235 0 -235 0 0 -555z"/>
 <path d="M1360 745 l0 -745 625 0 625 0 0 190 0 190 -395 0 -395 0 0 90 0 90 395 0 395 0 0 180 0 180 -395 0 -395 0 0 90 0 90 395 0 395 0 0 195 0 195 -625 0 -625 0 0 -745z"/>
 <path d="M2680 744 l0 -745 448 3 c387 4 455 6 507 21 236 69 371 214 442 477 14 51 18 104 18 245 0 157 -3 190 -23 258 -81 281 -276 439 -592 477 -46 5 -245 10 -442 10 l-358 0 0 -746z m792 323 c68 -33 110 -81 140 -157 17 -44 22 -77 22 -165 1 -100 -1 -115 -27 -170 -33 -70 -65 -107 -124 -142 -50 -29 -168 -52 -270 -53 l-73 0 0 361 0 361 138 -4 c126 -3 141 -5 194 -31z"/>
 <path d="M4146 908 c13 -22 159 -237 238 -352 l75 -108 -69 -102 c-38 -55 -106 -153 -150 -216 -44 -63 -80 -118 -80 -122 0 -5 76 -8 169 -8 l169 0 58 106 58 105 23 -38 c13 -21 40 -68 61 -105 l37 -68 173 0 c136 0 172 3 166 12 -4 7 -65 96 -134 198 -70 102 -134 197 -144 211 l-17 26 156 231 c85 127 155 233 155 236 0 3 -76 6 -170 6 l-169 0 -57 -97 c-32 -54 -62 -105 -68 -115 -10 -14 -22 2 -76 98 l-65 114 -173 0 c-136 0 -172 -3 -166 -12z"/>
 </g>
<g id="layer102" fill="#ffffff" stroke="none">
 <path d="M5775 4308 c-38 -21 -65 -52 -65 -75 0 -20 5 -23 40 -23 28 0 46 7 64 25 14 14 35 25 46 25 29 0 70 -44 70 -75 0 -25 -1 -25 -30 -10 -69 35 -151 11 -185 -55 -24 -46 -20 -150 8 -191 44 -66 140 -87 189 -42 17 15 18 15 18 0 0 -13 10 -17 45 -17 l45 0 0 173 c0 196 -9 229 -70 259 -40 20 -143 24 -175 6z m126 -207 c19 -16 24 -29 24 -69 0 -59 -24 -92 -66 -92 -43 0 -72 44 -66 100 8 71 60 100 108 61z"/>
 <path d="M2150 4090 l0 -220 45 0 c32 0 45 4 45 14 0 11 8 10 38 -6 44 -23 102 -19 141 9 62 46 85 171 45 248 -35 66 -119 94 -184 60 l-30 -16 0 66 0 65 -50 0 -50 0 0 -220z m211 31 c21 -16 24 -28 24 -81 0 -53 -3 -65 -24 -81 -31 -25 -59 -24 -88 3 -34 32 -33 119 2 153 29 30 55 32 86 6z"/>
 <path d="M4640 4270 c0 -39 1 -40 35 -40 59 0 59 -18 -6 -190 -32 -85 -58 -158 -59 -162 0 -5 22 -8 49 -8 l48 0 33 93 c17 50 35 98 39 105 4 8 21 -31 39 -93 l33 -105 50 0 c45 0 50 2 44 18 -3 9 -34 91 -67 182 -89 243 -87 240 -182 240 l-56 0 0 -40z"/>
 <path d="M1515 4201 c-28 -12 -62 -51 -74 -84 -17 -45 -13 -138 8 -177 36 -68 111 -97 172 -66 17 9 34 16 36 16 1 0 3 -31 3 -70 l0 -70 50 0 50 0 0 225 0 225 -45 0 c-35 0 -45 -4 -45 -17 0 -14 -2 -14 -20 2 -22 20 -104 30 -135 16z m117 -81 c48 -37 43 -149 -8 -172 -33 -15 -74 0 -92 32 -21 40 -9 110 23 137 32 28 45 29 77 3z"/>
 <path d="M1885 4196 c-53 -24 -95 -92 -95 -156 0 -51 38 -127 75 -150 110 -68 234 -4 252 130 l6 40 -117 0 c-114 0 -117 1 -114 21 8 52 83 73 122 34 15 -15 96 -21 96 -7 0 21 -42 71 -73 85 -42 20 -110 21 -152 3z m135 -206 c0 -19 -40 -50 -65 -50 -25 0 -65 31 -65 50 0 6 28 10 65 10 37 0 65 -4 65 -10z"/>
 <path d="M2590 4192 c-126 -62 -112 -263 22 -317 106 -42 218 35 218 149 l0 36 -116 0 c-115 0 -115 0 -109 23 4 12 13 29 21 37 19 20 79 18 102 -4 14 -12 32 -16 62 -14 l42 3 -24 35 c-44 66 -142 89 -218 52z m140 -204 c0 -21 -33 -48 -59 -48 -32 0 -44 8 -60 38 -12 22 -11 22 54 22 43 0 65 -4 65 -12z"/>
 <path d="M3282 4190 c-66 -40 -92 -161 -53 -247 34 -73 113 -101 184 -65 l37 20 0 -74 0 -74 45 0 45 0 0 225 0 225 -45 0 c-25 0 -45 -5 -45 -10 0 -6 -13 -4 -30 5 -40 21 -99 19 -138 -5z m121 -59 c71 -27 54 -191 -20 -191 -40 0 -62 18 -73 61 -13 49 1 101 33 124 25 18 28 18 60 6z"/>
 <path d="M3660 4191 c-49 -26 -72 -62 -78 -120 -6 -71 5 -116 38 -154 52 -60 156 -72 215 -25 34 27 65 89 65 133 l0 35 -115 0 c-125 0 -134 5 -96 51 23 28 81 31 109 5 14 -12 32 -16 62 -14 l42 3 -24 35 c-45 67 -145 90 -218 51z m140 -203 c0 -21 -33 -48 -58 -48 -25 0 -72 34 -72 52 0 4 29 8 65 8 43 0 65 -4 65 -12z"/>
 <path d="M4381 4200 c-59 -14 -66 -29 -69 -150 -4 -109 -4 -110 -28 -110 -21 0 -24 -5 -24 -35 0 -31 3 -35 25 -35 23 0 25 -4 25 -45 l0 -45 50 0 50 0 0 45 c0 45 0 45 35 45 33 0 35 2 35 35 0 33 -2 35 -35 35 l-35 0 0 79 c0 99 5 111 41 111 26 0 29 3 29 35 0 21 -5 35 -12 35 -7 0 -22 2 -33 4 -11 3 -35 1 -54 -4z"/>
 <path d="M5192 4189 c-60 -30 -85 -82 -80 -164 6 -104 64 -159 168 -159 71 -1 116 25 148 84 20 38 23 55 19 104 -9 96 -60 147 -154 153 -45 3 -68 -1 -101 -18z m133 -74 c53 -52 22 -175 -45 -175 -67 0 -98 123 -45 175 31 32 59 32 90 0z"/>
 <path d="M6104 4200 c-47 -19 -69 -92 -43 -142 12 -22 66 -48 101 -48 49 0 98 -20 98 -40 0 -43 -78 -51 -100 -10 -8 15 -21 20 -55 20 -49 0 -54 -9 -34 -53 31 -68 192 -88 257 -32 26 22 27 27 32 164 l5 141 -47 0 c-25 0 -48 -5 -50 -11 -2 -6 -14 -5 -33 5 -32 17 -97 20 -131 6z m138 -77 c10 -9 18 -28 18 -43 0 -27 -1 -27 -42 -19 -24 4 -46 8 -50 9 -4 0 -12 9 -18 21 -24 43 51 69 92 32z"/>
 <path d="M7280 4192 c-96 -48 -116 -189 -39 -277 52 -59 155 -70 214 -23 34 27 65 89 65 133 l0 35 -115 0 c-107 0 -115 1 -115 19 0 11 12 29 27 41 31 24 74 22 104 -6 11 -10 31 -14 59 -12 l42 3 -24 35 c-30 44 -80 70 -138 70 -25 0 -61 -8 -80 -18z m140 -204 c0 -44 -75 -63 -110 -28 -33 33 -24 40 45 40 43 0 65 -4 65 -12z"/>
 <path d="M7613 4190 c-39 -24 -62 -66 -70 -128 -16 -140 89 -238 197 -184 l40 19 0 -73 0 -74 50 0 50 0 0 225 0 225 -45 0 c-33 0 -45 -4 -45 -15 0 -12 -6 -11 -32 5 -42 25 -104 26 -145 0z m137 -68 c34 -28 40 -117 10 -154 -26 -34 -65 -36 -97 -6 -34 32 -33 119 2 153 29 30 55 32 85 7z"/>
 <path d="M9510 4192 c-92 -46 -116 -186 -45 -270 53 -63 160 -77 220 -31 34 28 65 90 65 134 l0 35 -116 0 c-115 0 -115 0 -109 23 4 12 13 29 21 37 19 20 79 18 102 -4 14 -12 32 -16 62 -14 l42 3 -24 35 c-44 66 -142 89 -218 52z m140 -204 c0 -21 -33 -48 -59 -48 -32 0 -44 8 -60 38 -12 22 -11 22 54 22 43 0 65 -4 65 -12z"/>
 <path d="M10136 4187 c-57 -32 -78 -77 -74 -157 4 -81 31 -124 96 -152 105 -47 203 16 227 145 l7 37 -122 0 c-121 0 -121 0 -115 23 4 12 13 29 21 37 19 20 79 18 102 -4 14 -12 32 -16 62 -14 l42 3 -24 35 c-47 70 -146 91 -222 47z m144 -199 c0 -41 -74 -64 -102 -30 -34 39 -32 42 36 42 44 0 66 -4 66 -12z"/>
 <path d="M10863 4200 c-60 -14 -63 -21 -63 -146 l0 -114 -30 0 c-28 0 -30 -3 -30 -35 0 -32 2 -35 30 -35 29 0 30 -2 30 -45 l0 -45 45 0 45 0 0 45 c0 45 0 45 35 45 33 0 35 2 35 35 0 33 -2 35 -35 35 l-35 0 0 83 c0 89 8 107 47 107 20 0 23 5 23 35 0 21 -5 35 -12 35 -7 0 -22 2 -33 4 -11 3 -35 1 -52 -4z"/>
 <path d="M940 4035 l0 -165 45 0 45 0 0 165 0 165 -45 0 -45 0 0 -165z"/>
 <path d="M1080 4035 l0 -165 45 0 c39 0 45 3 45 21 0 19 1 19 17 4 43 -44 133 -43 174 1 23 24 24 34 27 165 l4 139 -51 0 -51 0 0 -114 c0 -91 -3 -118 -16 -130 -21 -22 -50 -20 -74 4 -18 18 -20 33 -20 130 l0 110 -50 0 -50 0 0 -165z"/>
 <path d="M2860 4035 l0 -165 50 0 c36 0 50 4 50 14 0 11 8 10 37 -5 21 -10 48 -19 60 -19 41 0 93 28 103 55 6 15 10 85 10 156 l0 129 -45 0 -45 0 0 -110 c0 -97 -2 -112 -20 -130 -24 -24 -49 -25 -76 -6 -16 13 -19 29 -22 130 l-4 116 -49 0 -49 0 0 -165z"/>
 <path d="M3940 4035 l0 -165 45 0 c32 0 45 4 45 14 0 11 8 10 37 -5 43 -22 54 -23 105 -8 58 16 68 44 68 199 l0 130 -45 0 -45 0 0 -110 c0 -97 -2 -112 -20 -130 -26 -26 -46 -25 -75 5 -23 23 -25 31 -25 130 l0 105 -45 0 -45 0 0 -165z"/>
 <path d="M4500 3975 l0 -225 50 0 50 0 0 225 0 225 -50 0 -50 0 0 -225z"/>
 <path d="M5470 4035 l0 -165 45 0 c42 0 45 2 45 27 l0 26 23 -21 c23 -22 68 -42 93 -42 10 0 14 13 14 49 l0 49 -37 0 c-28 0 -43 7 -60 27 -20 23 -23 37 -23 121 l0 94 -50 0 -50 0 0 -165z"/>
 <path d="M6400 4035 l0 -165 50 0 c36 0 50 4 50 14 0 11 8 10 37 -5 43 -22 67 -24 112 -8 51 18 61 50 61 199 l0 130 -45 0 -45 0 0 -110 c0 -97 -2 -112 -20 -130 -25 -25 -41 -25 -71 -1 -22 18 -24 28 -27 130 l-4 111 -49 0 -49 0 0 -165z"/>
 <path d="M6750 4035 l0 -165 50 0 50 0 0 165 0 165 -50 0 -50 0 0 -165z"/>
 <path d="M6880 4164 c0 -32 11 -48 75 -119 41 -46 75 -86 75 -89 0 -3 -31 -6 -70 -6 l-70 0 0 -40 0 -40 140 0 140 0 0 38 c0 33 -10 49 -81 130 l-80 92 85 0 86 0 0 35 0 35 -150 0 -150 0 0 -36z"/>
 <path d="M8190 4020 l0 -180 -65 0 -65 0 0 -45 0 -45 185 0 185 0 0 45 0 45 -65 0 -65 0 0 180 0 180 -55 0 -55 0 0 -180z"/>
 <path d="M8460 3975 l0 -225 170 0 170 0 0 45 0 45 -120 0 -120 0 0 45 0 45 110 0 110 0 0 40 0 40 -110 0 -110 0 0 50 0 50 125 0 125 0 0 45 0 45 -175 0 -175 0 0 -225z"/>
 <path d="M8840 3975 l0 -225 123 0 c138 0 183 14 230 69 66 79 64 238 -6 318 -48 54 -79 63 -222 63 l-125 0 0 -225z m253 114 c31 -24 51 -87 42 -132 -18 -91 -49 -117 -140 -117 l-55 0 0 135 0 135 64 0 c49 0 69 -5 89 -21z"/>
 <path d="M9840 4168 c-27 -77 -100 -291 -100 -294 0 -2 22 -4 50 -4 l49 0 33 107 33 106 35 -106 35 -107 48 0 c43 0 48 2 42 18 -4 9 -12 33 -17 52 -6 19 -28 86 -50 148 l-40 112 -53 0 c-51 0 -54 -1 -65 -32z"/>
 <path d="M10420 4035 l0 -165 45 0 c32 0 45 4 45 14 0 11 8 10 37 -5 21 -10 48 -19 60 -19 41 0 93 28 103 55 6 15 10 85 10 156 l0 129 -45 0 -45 0 0 -110 c0 -97 -2 -112 -20 -130 -25 -25 -41 -25 -71 -1 -22 18 -24 28 -27 130 l-4 111 -44 0 -44 0 0 -165z"/>
 <path d="M470 4105 l0 -35 160 0 160 0 0 35 0 35 -160 0 -160 0 0 -35z"/>
 <path d="M470 3975 l0 -35 160 0 160 0 0 35 0 35 -160 0 -160 0 0 -35z"/>
 <path d="M940 3790 l0 -40 45 0 45 0 0 40 0 40 -45 0 -45 0 0 -40z"/>
 <path d="M6750 3790 l0 -40 50 0 50 0 0 40 0 40 -50 0 -50 0 0 -40z"/>
 <path d="M10203 3361 c-95 -23 -185 -69 -250 -126 -81 -72 -143 -214 -143 -331 l0 -34 94 0 94 0 7 43 c13 75 45 135 101 186 75 69 142 92 278 99 191 8 315 -31 373 -120 38 -57 45 -158 14 -220 -38 -79 -130 -118 -471 -198 -325 -77 -418 -150 -437 -345 -15 -165 72 -337 211 -419 95 -56 159 -70 321 -70 175 -1 249 16 350 82 124 80 186 182 209 340 l6 42 -99 0 -98 0 -7 -41 c-14 -87 -83 -171 -172 -210 -95 -43 -284 -42 -381 1 -98 43 -150 130 -141 232 11 107 65 137 398 219 348 85 428 127 492 257 32 64 33 71 33 187 0 100 -4 129 -22 175 -49 119 -166 208 -329 250 -103 27 -325 27 -431 1z"/>
 <path d="M3253 3356 c-88 -29 -148 -81 -185 -161 -32 -71 -32 -208 1 -281 27 -62 79 -114 146 -147 69 -35 106 -43 293 -67 171 -22 200 -29 220 -53 40 -48 30 -142 -20 -194 -41 -43 -105 -63 -198 -63 -129 0 -215 61 -236 168 l-6 32 -86 0 -85 0 5 -48 c6 -59 44 -146 86 -193 66 -75 193 -118 350 -119 164 0 278 45 349 138 54 71 56 88 60 470 5 346 5 352 26 367 14 10 33 13 54 9 l33 -6 0 70 0 71 -55 11 c-77 16 -149 0 -192 -42 -18 -18 -33 -35 -33 -39 0 -4 -4 -19 -10 -33 l-9 -26 -65 49 c-96 73 -158 94 -291 98 -73 2 -124 -2 -152 -11z m310 -162 c56 -19 140 -92 167 -144 22 -44 40 -240 22 -240 -6 0 -23 5 -38 10 -15 6 -90 20 -167 31 -168 25 -235 48 -276 95 -27 30 -31 43 -31 90 0 92 31 142 107 170 46 17 147 12 216 -12z"/>
 <path d="M5857 3360 c-97 -25 -179 -98 -212 -192 -17 -48 -19 -94 -23 -480 l-3 -428 95 0 95 0 3 403 c3 397 3 403 26 449 32 65 75 90 167 96 62 4 81 1 127 -20 91 -42 151 -137 168 -270 5 -40 10 -205 10 -365 l0 -293 95 0 95 0 0 540 0 540 -95 0 -95 0 0 -66 0 -67 -52 53 c-78 79 -140 104 -263 107 -55 1 -117 -2 -138 -7z"/>
 <path d="M7103 3356 c-58 -19 -105 -50 -147 -96 l-36 -40 0 60 0 60 -90 0 -90 0 0 -740 0 -740 95 0 95 0 0 265 0 266 53 -54 c28 -29 75 -64 102 -77 44 -22 63 -25 160 -24 87 0 121 5 163 22 135 53 229 173 269 342 20 87 13 340 -12 420 -50 157 -129 260 -244 313 -57 27 -77 31 -170 34 -71 2 -120 -2 -148 -11z m209 -162 c131 -51 197 -211 185 -444 -6 -124 -26 -194 -70 -252 -48 -63 -111 -91 -205 -92 -178 -1 -257 95 -282 342 -25 242 45 409 188 452 46 14 140 11 184 -6z"/>
 <path d="M9087 3359 c-153 -36 -278 -177 -324 -366 -25 -104 -22 -296 6 -398 65 -235 231 -365 465 -365 225 0 383 118 425 318 18 88 23 83 -81 80 l-92 -3 -8 -38 c-25 -119 -117 -189 -248 -189 -85 0 -141 24 -193 81 -75 83 -102 190 -95 369 11 229 91 345 250 359 138 13 239 -62 283 -212 l12 -40 92 -3 c50 -1 91 1 91 5 0 4 -7 36 -15 69 -53 228 -205 346 -439 343 -50 -1 -108 -5 -129 -10z"/>
 <path d="M11487 3359 c-108 -26 -222 -121 -276 -231 -51 -105 -65 -177 -65 -328 0 -195 27 -282 125 -406 82 -104 180 -152 326 -161 152 -10 276 30 356 116 66 71 91 126 111 249 l6 32 -90 0 -89 0 -15 -52 c-35 -119 -116 -180 -243 -180 -118 -1 -198 52 -247 162 -37 83 -49 159 -43 285 10 233 91 350 251 362 133 11 231 -58 276 -192 l22 -65 89 0 89 0 -6 28 c-49 224 -138 333 -309 378 -56 15 -209 17 -268 3z"/>
 <path d="M13697 3360 c-201 -51 -342 -231 -367 -472 -17 -165 19 -341 89 -438 109 -153 234 -220 406 -220 148 0 261 46 349 141 110 118 156 245 156 428 0 134 -19 222 -67 313 -52 100 -124 170 -219 215 -74 35 -83 37 -193 40 -64 1 -133 -2 -154 -7z m214 -160 c155 -43 250 -251 219 -482 -27 -203 -136 -319 -301 -320 -173 -1 -288 133 -305 356 -17 221 73 400 226 447 37 11 120 10 161 -1z"/>
 <path d="M14814 3350 c-215 -69 -343 -270 -344 -543 -1 -345 200 -577 499 -577 195 0 346 90 435 259 49 93 66 173 66 312 0 132 -22 237 -67 322 -34 64 -134 167 -190 196 -106 53 -283 67 -399 31z m283 -168 c113 -58 183 -200 183 -373 0 -256 -117 -411 -310 -411 -87 0 -141 24 -198 86 -58 63 -89 135 -104 234 -31 222 65 433 220 483 47 15 163 4 209 -19z"/>
 <path d="M150 2600 l0 -740 361 0 c398 0 451 6 546 60 64 37 125 112 148 180 26 77 18 208 -17 282 -27 57 -105 142 -141 154 -16 5 -8 13 44 40 81 43 133 94 167 164 25 50 27 65 27 171 0 113 -1 116 -38 191 -42 86 -89 133 -179 179 -107 54 -148 59 -550 59 l-368 0 0 -740z m709 559 c102 -16 163 -56 204 -134 16 -31 21 -59 21 -121 1 -72 -2 -85 -29 -130 -59 -96 -132 -114 -466 -114 l-239 0 0 255 0 255 223 0 c122 0 251 -5 286 -11z m14 -688 c58 -19 113 -74 133 -133 31 -95 4 -210 -61 -252 -56 -37 -131 -46 -367 -46 l-228 0 0 226 0 226 243 -5 c153 -2 256 -8 280 -16z"/>
 <path d="M1510 2800 l0 -540 90 0 90 0 0 540 0 540 -90 0 -90 0 0 -540z"/>
 <path d="M1980 2800 l0 -540 90 0 90 0 1 88 c0 71 2 84 12 68 37 -60 99 -123 146 -149 44 -25 66 -31 120 -31 l66 -1 3 96 3 96 -66 6 c-123 12 -205 70 -247 176 -21 53 -23 71 -26 394 l-3 337 -95 0 -94 0 0 -540z"/>
 <path d="M2650 2600 l0 -740 95 0 95 0 0 740 0 740 -95 0 -95 0 0 -740z"/>
 <path d="M4290 2600 l0 -740 359 0 c197 0 380 4 407 9 241 46 358 213 333 473 -19 191 -129 320 -310 363 -48 11 -128 15 -326 15 l-263 0 0 310 0 310 -100 0 -100 0 0 -740z m760 -84 c19 -10 46 -28 58 -40 80 -72 95 -257 30 -349 -12 -16 -46 -41 -77 -56 -55 -26 -60 -26 -313 -29 l-258 -3 0 251 0 251 263 -3 c233 -3 266 -5 297 -22z"/>
 <path d="M7910 2600 l0 -740 90 0 90 0 0 740 0 740 -90 0 -90 0 0 -740z"/>
 <path d="M8370 2800 l0 -540 90 0 90 0 0 540 0 540 -90 0 -90 0 0 -540z"/>
 <path d="M12240 2600 l0 -740 95 0 95 0 0 267 0 267 46 -48 c151 -158 453 -153 576 9 70 92 71 100 76 568 l3 417 -95 0 -95 0 -3 -392 -3 -393 -25 -49 c-31 -62 -59 -83 -131 -97 -108 -21 -226 25 -284 112 -58 88 -59 95 -63 472 l-3 347 -95 0 -94 0 0 -740z"/>
 <path d="M15680 2600 l0 -740 95 0 95 0 0 740 0 740 -95 0 -95 0 0 -740z"/>
 <path d="M1510 1965 l0 -105 95 0 95 0 0 105 0 105 -95 0 -95 0 0 -105z"/>
 <path d="M8360 1965 l0 -105 95 0 95 0 0 105 0 105 -95 0 -95 0 0 -105z"/>
 </g>

</svg>