<!DOCTYPE svg PUBLIC "-//W3C//DTD SVG 20010904//EN" "http://www.w3.org/TR/2001/REC-SVG-20010904/DTD/svg10.dtd">
<svg version="1.0" xmlns="http://www.w3.org/2000/svg" width="1600px" height="431px" viewBox="0 0 16000 4310" preserveAspectRatio="xMidYMid meet">
<g id="layer101" fill="#000000" stroke="none">
 <path d="M5764 4296 c-35 -15 -64 -51 -64 -78 0 -27 82 -25 101 2 8 11 28 23 44 26 41 8 72 -19 81 -70 l7 -40 -28 22 c-36 29 -107 30 -153 2 -86 -53 -81 -239 8 -285 43 -22 112 -19 144 6 21 17 26 18 26 5 0 -12 11 -16 46 -16 l46 0 -4 173 c-4 195 -11 218 -70 248 -44 23 -137 25 -184 5z m133 -208 c27 -30 33 -61 22 -104 -19 -67 -98 -72 -125 -8 -37 89 44 176 103 112z"/>
 <path d="M2150 4085 l0 -215 45 0 c25 0 45 5 45 11 0 5 10 3 22 -5 32 -22 115 -21 154 3 17 10 39 35 48 56 24 51 24 144 -1 192 -35 68 -125 93 -190 53 l-33 -20 0 70 0 70 -45 0 -45 0 0 -215z m205 23 c33 -29 42 -82 22 -131 -28 -66 -104 -61 -127 8 -16 49 -5 99 27 125 33 26 46 25 78 -2z"/>
 <path d="M4640 4260 c0 -38 2 -40 28 -38 34 2 52 -8 52 -30 0 -9 -25 -82 -55 -162 -30 -80 -55 -148 -55 -152 0 -5 22 -8 49 -8 l49 0 35 103 34 102 32 -102 32 -103 49 0 c28 0 50 3 50 8 0 4 -20 59 -44 122 -24 63 -56 147 -70 185 -35 93 -61 115 -132 115 l-54 0 0 -40z"/>
 <path d="M1514 4191 c-38 -17 -82 -78 -89 -125 -12 -80 20 -163 75 -191 38 -20 110 -19 138 1 l22 15 0 -75 0 -76 50 0 50 0 0 225 0 225 -45 0 c-35 0 -45 -4 -45 -17 0 -14 -2 -14 -20 2 -22 20 -104 30 -136 16z m122 -84 c22 -19 26 -32 27 -72 0 -28 -5 -60 -11 -72 -25 -47 -103 -38 -122 13 -19 49 -12 93 19 125 35 35 52 36 87 6z"/>
 <path d="M1873 4179 c-78 -39 -107 -151 -60 -239 29 -55 74 -80 147 -80 81 0 129 38 149 117 20 76 25 73 -108 73 l-120 0 11 31 c17 49 83 62 122 24 15 -15 96 -21 96 -7 0 4 -9 21 -19 38 -38 62 -139 82 -218 43z m147 -199 c0 -20 -41 -50 -68 -50 -16 0 -36 8 -44 18 -34 40 -32 42 41 42 41 0 71 -4 71 -10z"/>
 <path d="M2594 4186 c-86 -38 -118 -165 -63 -254 28 -48 75 -72 137 -72 91 0 145 50 158 144 l7 46 -117 0 c-98 0 -116 2 -116 15 0 20 44 65 64 65 21 0 66 -22 66 -32 0 -4 20 -8 45 -8 25 0 45 3 45 8 0 22 -45 75 -75 88 -43 17 -110 18 -151 0z m136 -206 c0 -19 -40 -50 -65 -50 -25 0 -65 31 -65 50 0 6 28 10 65 10 37 0 65 -4 65 -10z"/>
 <path d="M3300 4193 c-23 -9 -60 -45 -76 -75 -18 -35 -18 -139 0 -183 28 -66 126 -96 196 -60 l30 16 0 -76 0 -75 45 0 45 0 0 225 0 225 -45 0 c-25 0 -45 -4 -45 -9 0 -6 -16 -3 -35 5 -34 14 -87 17 -115 7z m104 -73 c51 -19 60 -142 13 -175 -54 -38 -107 -4 -115 73 -4 47 -2 54 26 82 33 33 39 34 76 20z"/>
 <path d="M3665 4186 c-44 -20 -72 -55 -86 -108 -22 -83 12 -167 83 -204 36 -19 123 -18 157 2 40 23 73 78 79 129 l5 45 -117 0 c-114 0 -117 1 -114 21 8 52 83 73 122 34 18 -19 96 -21 96 -2 0 19 -55 76 -85 87 -36 14 -104 12 -140 -4z m135 -206 c0 -19 -40 -50 -65 -50 -25 0 -65 31 -65 50 0 6 28 10 65 10 37 0 65 -4 65 -10z"/>
 <path d="M4370 4190 c-53 -13 -60 -30 -60 -152 l0 -108 -25 0 c-21 0 -25 -5 -25 -30 0 -25 4 -30 25 -30 23 0 25 -3 25 -50 l0 -50 50 0 50 0 0 50 c0 49 1 50 30 50 27 0 30 3 30 30 0 27 -3 30 -30 30 l-31 0 3 93 3 92 28 3 c23 3 27 8 27 36 0 44 -25 53 -100 36z"/>
 <path d="M5190 4182 c-111 -61 -115 -235 -7 -303 44 -27 153 -23 194 7 45 34 65 77 65 143 0 107 -50 160 -155 168 -48 3 -70 0 -97 -15z m114 -63 c33 -15 50 -59 43 -112 -10 -73 -74 -101 -122 -52 -42 41 -30 146 17 165 31 12 33 12 62 -1z"/>
 <path d="M6083 4180 c-38 -23 -52 -74 -33 -121 16 -38 34 -47 123 -62 66 -11 72 -14 72 -36 0 -13 -7 -28 -16 -34 -23 -14 -70 0 -76 23 -4 17 -14 20 -55 20 -50 0 -50 0 -43 -27 15 -62 69 -87 176 -81 57 3 73 8 93 28 23 24 25 33 28 163 l3 137 -47 0 c-27 0 -48 -4 -48 -9 0 -6 -16 -3 -35 5 -48 20 -104 18 -142 -6z m151 -66 c9 -8 16 -28 16 -43 0 -28 0 -28 -46 -20 -25 5 -50 11 -55 14 -10 7 -12 48 -2 58 12 13 72 7 87 -9z"/>
 <path d="M7270 4178 c-61 -32 -82 -74 -78 -159 6 -114 68 -166 184 -157 82 7 134 65 134 148 l0 40 -115 0 -115 0 13 32 c19 46 67 59 107 30 38 -28 113 -31 103 -4 -9 25 -44 62 -75 78 -40 21 -107 17 -158 -8z m138 -213 c-6 -14 -23 -28 -37 -32 -29 -7 -74 15 -79 40 -3 15 6 17 62 17 l66 0 -12 -25z"/>
 <path d="M7614 4185 c-92 -47 -106 -225 -25 -299 30 -27 122 -34 156 -12 l25 16 0 -75 0 -75 50 0 50 0 0 225 0 225 -45 0 c-35 0 -45 -4 -45 -17 0 -14 -2 -14 -20 2 -27 25 -107 30 -146 10z m129 -75 c32 -25 43 -76 27 -124 -19 -60 -73 -74 -115 -31 -42 41 -30 140 19 163 31 15 40 14 69 -8z"/>
 <path d="M9502 4183 c-53 -26 -76 -68 -80 -143 -6 -115 52 -180 158 -180 92 0 154 56 162 145 l3 40 -117 3 c-127 3 -136 8 -99 53 23 28 81 31 109 6 11 -10 35 -17 60 -17 35 0 40 3 35 18 -27 77 -148 116 -231 75z m138 -205 c0 -41 -74 -64 -102 -30 -34 39 -32 42 36 42 44 0 66 -4 66 -12z"/>
 <path d="M10126 4177 c-57 -32 -78 -77 -74 -158 6 -114 68 -166 184 -157 79 7 124 53 138 146 l6 42 -120 0 c-128 0 -135 3 -105 47 23 33 71 39 106 14 37 -27 112 -30 102 -3 -29 82 -151 118 -237 69z m147 -204 c-15 -43 -77 -58 -105 -25 -34 40 -32 42 41 42 63 0 70 -2 64 -17z"/>
 <path d="M10850 4190 c-53 -13 -60 -30 -60 -152 l0 -108 -25 0 c-21 0 -25 -5 -25 -30 0 -25 4 -30 25 -30 23 0 25 -3 25 -50 l0 -50 45 0 45 0 0 50 0 50 35 0 c32 0 35 2 35 30 0 28 -3 30 -35 30 l-35 0 0 79 c0 99 5 111 41 111 26 0 29 3 29 35 0 21 -5 35 -12 35 -7 0 -22 2 -33 4 -11 3 -36 1 -55 -4z"/>
 <path d="M47 4162 c10 -15 36 -53 57 -85 l39 -58 -52 -74 -52 -75 55 0 c53 0 57 2 78 35 13 19 25 35 28 35 3 0 15 -16 28 -35 20 -32 26 -35 72 -35 28 0 50 3 50 6 0 3 -20 34 -45 68 -25 35 -45 68 -45 73 0 5 22 41 49 81 27 39 52 76 56 81 4 7 -13 11 -50 11 -55 0 -56 0 -83 -45 -15 -25 -29 -45 -32 -45 -3 0 -18 20 -33 45 -28 44 -30 45 -84 45 l-55 0 19 -28z"/>
 <path d="M930 4030 l0 -160 50 0 50 0 0 160 0 160 -50 0 -50 0 0 -160z"/>
 <path d="M1080 4030 l0 -160 45 0 c34 0 45 4 45 16 0 13 5 12 26 -5 19 -15 41 -21 78 -21 97 0 116 36 116 218 l0 112 -50 0 -50 0 0 -113 c0 -98 -3 -116 -18 -130 -25 -22 -48 -21 -72 3 -18 18 -20 33 -20 130 l0 110 -50 0 -50 0 0 -160z"/>
 <path d="M2860 4030 l0 -160 45 0 c34 0 45 4 45 16 0 13 5 12 26 -5 39 -31 123 -29 161 3 28 24 28 25 31 165 l4 141 -45 0 -45 0 -4 -116 c-3 -100 -6 -118 -23 -130 -26 -19 -51 -18 -75 6 -18 18 -20 33 -20 130 l0 110 -50 0 -50 0 0 -160z"/>
 <path d="M3930 4030 l0 -160 45 0 c34 0 45 4 45 16 0 13 5 12 26 -5 19 -15 41 -21 76 -21 99 0 118 33 118 210 l0 120 -45 0 -45 0 0 -88 c0 -92 -11 -150 -32 -164 -22 -13 -47 -9 -68 12 -18 18 -20 33 -20 130 l0 110 -50 0 -50 0 0 -160z"/>
 <path d="M4500 3965 l0 -225 45 0 45 0 0 225 0 225 -45 0 -45 0 0 -225z"/>
 <path d="M5470 4030 l0 -160 45 0 c40 0 45 3 46 23 0 12 3 16 6 9 7 -18 57 -42 88 -42 23 0 25 3 25 46 0 37 -3 45 -17 43 -32 -5 -72 11 -84 33 -7 12 -14 64 -17 115 l-5 93 -43 0 -44 0 0 -160z"/>
 <path d="M6400 4030 l0 -160 45 0 c34 0 45 4 45 16 0 13 5 12 26 -5 19 -15 41 -21 78 -21 97 0 116 36 116 218 l0 112 -50 0 -50 0 0 -113 c0 -98 -3 -116 -18 -130 -23 -21 -41 -21 -70 -1 -21 14 -22 23 -22 130 l0 114 -50 0 -50 0 0 -160z"/>
 <path d="M6740 4030 l0 -160 50 0 50 0 0 160 0 160 -50 0 -50 0 0 -160z"/>
 <path d="M6870 4156 c0 -28 14 -49 79 -122 l79 -89 -69 -3 -69 -3 0 -34 0 -35 135 0 135 0 0 36 c0 31 -11 48 -81 125 l-81 89 86 0 86 0 0 35 0 35 -150 0 -150 0 0 -34z"/>
 <path d="M8180 4010 l0 -180 -65 0 -65 0 0 -45 0 -45 185 0 185 0 0 45 0 45 -65 0 -65 0 0 180 0 180 -55 0 -55 0 0 -180z"/>
 <path d="M8450 3965 l0 -225 170 0 170 0 0 45 0 45 -115 0 -115 0 0 45 0 45 105 0 105 0 0 40 0 40 -105 0 -105 0 0 50 0 50 120 0 120 0 0 45 0 45 -175 0 -175 0 0 -225z"/>
 <path d="M8830 3965 l0 -225 123 0 c110 0 129 3 168 23 24 13 57 43 74 66 25 36 30 54 33 116 5 87 -8 133 -51 182 -48 54 -79 63 -222 63 l-125 0 0 -225z m255 113 c53 -46 53 -164 1 -216 -20 -20 -38 -27 -86 -30 l-60 -4 0 136 0 136 59 0 c48 0 65 -5 86 -22z"/>
 <path d="M9791 4038 c-28 -84 -51 -156 -51 -160 0 -5 22 -8 48 -8 l49 0 28 95 c15 53 31 92 36 88 4 -4 19 -47 34 -95 l26 -88 49 0 49 0 -54 156 c-30 85 -55 157 -55 160 0 2 -24 4 -54 4 l-53 0 -52 -152z"/>
 <path d="M10410 4030 l0 -160 45 0 c25 0 45 5 45 10 0 6 13 4 30 -5 35 -18 106 -19 140 -2 37 18 49 68 49 200 l1 117 -50 0 -50 0 0 -110 c0 -97 -2 -112 -20 -130 -25 -25 -41 -25 -71 -1 -22 18 -24 28 -27 130 l-4 111 -44 0 -44 0 0 -160z"/>
 <path d="M470 4095 l0 -35 160 0 160 0 0 35 0 35 -160 0 -160 0 0 -35z"/>
 <path d="M470 3965 l0 -35 160 0 160 0 0 35 0 35 -160 0 -160 0 0 -35z"/>
 <path d="M930 3780 l0 -40 50 0 50 0 0 40 0 40 -50 0 -50 0 0 -40z"/>
 <path d="M6740 3780 l0 -40 50 0 50 0 0 40 0 40 -50 0 -50 0 0 -40z"/>
 <path d="M10285 3370 c-82 -13 -160 -37 -219 -67 -61 -31 -150 -113 -183 -171 -36 -61 -63 -155 -63 -218 l0 -54 95 0 95 0 0 33 c0 109 94 226 215 268 62 21 87 24 215 23 127 0 152 -3 204 -23 32 -13 75 -40 95 -60 87 -87 79 -252 -16 -315 -54 -35 -97 -49 -363 -117 -271 -69 -357 -105 -419 -176 -50 -56 -71 -121 -71 -218 0 -286 199 -455 535 -455 319 0 517 149 550 414 l7 56 -94 0 -95 0 -12 -54 c-36 -160 -177 -245 -391 -233 -188 9 -282 75 -305 213 -14 86 26 153 114 190 20 9 149 44 288 79 267 67 340 94 411 152 113 92 151 317 82 478 -46 107 -177 205 -321 240 -79 19 -274 27 -354 15z"/>
 <path d="M3310 3361 c-69 -13 -114 -35 -163 -80 -67 -62 -91 -126 -91 -236 0 -79 3 -98 28 -148 31 -64 87 -115 159 -146 50 -22 84 -28 309 -61 75 -11 148 -25 161 -31 72 -33 66 -169 -9 -228 -61 -48 -187 -64 -281 -36 -63 19 -118 76 -135 140 l-12 45 -84 0 -85 0 6 -49 c9 -76 44 -145 98 -196 89 -84 189 -110 376 -102 135 5 185 20 257 75 60 45 94 106 106 193 5 35 10 202 10 371 l0 308 23 15 c16 10 35 13 55 9 l32 -6 0 70 0 71 -42 12 c-54 14 -140 6 -180 -18 -28 -17 -59 -62 -73 -107 -5 -16 -9 -14 -44 17 -83 75 -178 113 -304 121 -40 3 -92 1 -117 -3z m259 -176 c109 -38 177 -115 191 -216 10 -67 13 -169 6 -169 -3 0 -17 5 -33 11 -15 6 -86 20 -158 30 -201 30 -265 53 -304 108 -38 53 -23 170 27 214 53 48 171 57 271 22z"/>
 <path d="M5905 3360 c-125 -23 -195 -72 -241 -172 l-29 -63 -3 -432 -3 -433 95 0 95 0 3 398 c3 392 3 398 26 444 36 72 77 93 182 93 75 0 91 -3 132 -28 55 -32 100 -93 130 -175 20 -53 22 -82 26 -394 l4 -338 89 0 89 0 0 540 0 540 -90 0 -90 0 0 -72 0 -71 -50 52 c-90 94 -227 136 -365 111z"/>
 <path d="M7153 3359 c-70 -13 -129 -45 -177 -93 l-46 -45 0 59 0 60 -90 0 -90 0 0 -740 0 -740 95 0 95 0 0 260 0 261 49 -49 c27 -27 71 -60 98 -73 42 -21 62 -24 168 -24 116 0 123 1 188 33 181 89 267 274 254 547 -7 138 -23 212 -71 310 -65 132 -177 215 -318 235 -73 11 -97 11 -155 -1z m188 -186 c112 -57 163 -176 163 -378 1 -179 -27 -269 -103 -338 -46 -42 -93 -57 -175 -57 -163 0 -247 90 -275 294 -38 274 28 448 189 497 14 4 52 8 86 8 47 1 72 -5 115 -26z"/>
 <path d="M9130 3359 c-168 -28 -304 -164 -357 -361 -24 -89 -24 -319 1 -407 48 -175 158 -297 308 -342 95 -29 264 -24 353 11 123 48 218 177 232 318 l6 52 -90 0 -91 0 -6 -44 c-10 -62 -56 -129 -111 -161 -57 -34 -152 -44 -222 -24 -67 18 -143 95 -172 173 -54 146 -48 362 15 487 111 223 442 166 489 -84 l7 -37 89 0 c102 0 99 -4 74 95 -35 133 -115 237 -218 286 -96 44 -194 56 -307 38z"/>
 <path d="M11527 3360 c-230 -39 -378 -260 -379 -565 0 -276 124 -481 331 -545 78 -25 221 -27 306 -5 142 37 243 146 274 293 20 96 23 92 -77 92 l-89 0 -12 -52 c-15 -69 -54 -123 -110 -156 -41 -24 -56 -27 -136 -27 -100 0 -129 11 -186 67 -136 137 -144 527 -13 662 57 59 88 71 184 71 75 0 91 -3 132 -27 59 -35 105 -97 125 -170 l16 -58 89 0 c99 0 96 -4 73 85 -51 194 -172 309 -350 335 -80 11 -110 11 -178 0z"/>
 <path d="M13735 3359 c-165 -24 -309 -152 -373 -333 -24 -65 -26 -85 -26 -231 0 -146 2 -166 26 -231 50 -142 129 -232 257 -293 76 -36 76 -36 211 -36 126 0 140 2 204 30 83 34 185 129 229 212 90 170 90 468 0 636 -72 132 -205 227 -348 247 -80 11 -97 11 -180 -1z m221 -187 c64 -33 129 -112 156 -190 33 -96 33 -277 -1 -374 -26 -78 -90 -156 -155 -191 -59 -31 -193 -31 -252 0 -94 50 -157 157 -176 298 -31 229 60 423 222 476 44 15 162 4 206 -19z"/>
 <path d="M14900 3364 c-63 -8 -157 -44 -205 -79 -101 -71 -183 -201 -211 -335 -21 -100 -14 -278 15 -371 42 -132 147 -255 268 -312 60 -27 80 -31 178 -35 175 -7 281 32 382 142 61 65 103 146 128 241 20 79 20 281 0 360 -49 186 -163 318 -317 366 -60 19 -178 30 -238 23z m173 -180 c55 -19 126 -84 156 -143 67 -130 67 -362 0 -492 -32 -64 -98 -124 -159 -144 -67 -22 -168 -17 -226 13 -75 38 -140 134 -164 243 -17 76 -9 259 15 324 61 173 216 254 378 199z"/>
 <path d="M160 2601 l0 -741 373 0 c305 0 384 3 432 16 114 29 199 97 243 193 22 47 26 70 26 146 0 77 -4 99 -27 150 -30 65 -61 102 -120 146 l-38 28 51 26 c151 77 221 218 199 399 -22 174 -135 296 -325 352 -50 14 -117 18 -436 21 l-378 5 0 -741z m777 535 c64 -20 107 -55 136 -110 18 -33 22 -58 22 -131 0 -104 -19 -147 -83 -187 -74 -46 -104 -50 -379 -55 l-263 -5 0 257 0 257 258 -4 c206 -4 267 -8 309 -22z m-63 -670 c105 -32 155 -102 156 -216 0 -126 -57 -188 -195 -210 -33 -5 -151 -10 -262 -10 l-203 0 0 225 0 225 228 0 c169 0 241 -4 276 -14z"/>
 <path d="M1520 2800 l0 -540 95 0 95 0 0 540 0 540 -95 0 -95 0 0 -540z"/>
 <path d="M2000 2800 l0 -540 85 0 85 0 0 88 0 87 21 -35 c65 -109 162 -170 272 -170 l67 0 0 98 0 98 -65 2 c-86 2 -155 32 -205 89 -71 81 -73 95 -78 481 l-4 342 -89 0 -89 0 0 -540z"/>
 <path d="M2660 2600 l0 -740 95 0 95 0 0 740 0 740 -95 0 -95 0 0 -740z"/>
 <path d="M4300 2600 l0 -740 373 0 c401 0 436 4 535 54 61 32 136 109 162 168 44 101 42 292 -4 395 -27 58 -94 135 -146 168 -19 12 -62 32 -95 45 -57 23 -75 24 -342 28 l-283 4 0 309 0 309 -100 0 -100 0 0 -740z m703 -74 c119 -28 175 -97 185 -225 6 -85 -10 -143 -54 -191 -59 -66 -94 -73 -381 -78 l-253 -4 0 256 0 256 223 0 c151 0 240 -5 280 -14z"/>
 <path d="M7910 2600 l0 -740 95 0 95 0 0 740 0 740 -95 0 -95 0 0 -740z"/>
 <path d="M8370 2800 l0 -540 95 0 95 0 0 540 0 540 -95 0 -95 0 0 -540z"/>
 <path d="M12250 2600 l0 -740 90 0 90 0 0 266 0 265 50 -51 c28 -29 75 -63 107 -78 53 -25 68 -27 178 -27 104 0 127 3 170 23 92 42 163 131 184 230 7 34 11 195 11 452 l0 400 -94 0 -95 0 -3 -402 -3 -403 -25 -45 c-38 -68 -92 -93 -195 -87 -122 6 -186 46 -239 153 -38 76 -46 157 -46 487 l0 297 -90 0 -90 0 0 -740z"/>
 <path d="M15680 2600 l0 -740 95 0 95 0 0 740 0 740 -95 0 -95 0 0 -740z"/>
 <path d="M1520 1965 l0 -105 95 0 95 0 0 105 0 105 -95 0 -95 0 0 -105z"/>
 <path d="M8370 1965 l0 -105 95 0 95 0 0 105 0 105 -95 0 -95 0 0 -105z"/>
 <path d="M410 930 l0 -550 -205 0 -205 0 0 -190 0 -190 645 0 645 0 0 190 0 190 -210 0 -210 0 0 550 0 550 -230 0 -230 0 0 -550z"/>
 <path d="M1350 740 l0 -740 630 0 630 0 0 190 0 190 -400 0 -400 0 0 90 0 90 400 0 400 0 0 180 0 180 -400 0 -400 0 0 90 0 90 400 0 400 0 0 190 0 190 -630 0 -630 0 0 -740z"/>
 <path d="M2680 739 l0 -740 448 4 c492 4 497 4 632 70 95 46 207 160 253 257 60 124 81 230 81 405 1 182 -16 270 -79 400 -66 137 -167 228 -322 290 -124 50 -182 55 -613 55 l-400 0 0 -741z m786 329 c96 -50 147 -131 165 -265 19 -145 -26 -279 -119 -350 -58 -44 -126 -63 -259 -70 l-113 -6 0 363 0 362 138 -4 c124 -4 142 -7 188 -30z"/>
 <path d="M4146 898 c4 -7 74 -111 156 -230 81 -119 148 -220 147 -225 0 -4 -21 -38 -47 -75 -63 -88 -236 -340 -246 -355 -6 -10 30 -13 166 -13 l173 0 58 106 59 106 61 -106 61 -106 173 0 173 0 -87 128 c-48 70 -118 169 -154 221 l-67 95 37 55 c20 31 38 58 41 61 4 3 59 83 123 178 l117 172 -174 0 -174 0 -62 -105 c-34 -58 -65 -105 -69 -105 -3 0 -33 47 -66 105 l-60 105 -173 0 c-136 0 -172 -3 -166 -12z"/>
 </g>
<g id="layer102" fill="#ff2b06" stroke="none">
 <path d="M47 4162 c10 -15 36 -53 57 -85 l39 -58 -52 -74 -52 -75 55 0 c53 0 57 2 78 35 13 19 25 35 28 35 3 0 15 -16 28 -35 20 -32 26 -35 72 -35 28 0 50 3 50 6 0 3 -20 34 -45 68 -25 35 -45 68 -45 73 0 5 22 41 49 81 27 39 52 76 56 81 4 7 -13 11 -50 11 -55 0 -56 0 -83 -45 -15 -25 -29 -45 -32 -45 -3 0 -18 20 -33 45 -28 44 -30 45 -84 45 l-55 0 19 -28z"/>
 <path d="M410 930 l0 -550 -205 0 -205 0 0 -190 0 -190 645 0 645 0 0 190 0 190 -210 0 -210 0 0 550 0 550 -230 0 -230 0 0 -550z"/>
 <path d="M1350 740 l0 -740 630 0 630 0 0 190 0 190 -400 0 -400 0 0 90 0 90 400 0 400 0 0 180 0 180 -400 0 -400 0 0 90 0 90 400 0 400 0 0 190 0 190 -630 0 -630 0 0 -740z"/>
 <path d="M2680 739 l0 -740 448 4 c492 4 497 4 632 70 95 46 207 160 253 257 60 124 81 230 81 405 1 182 -16 270 -79 400 -66 137 -167 228 -322 290 -124 50 -182 55 -613 55 l-400 0 0 -741z m786 329 c96 -50 147 -131 165 -265 19 -145 -26 -279 -119 -350 -58 -44 -126 -63 -259 -70 l-113 -6 0 363 0 362 138 -4 c124 -4 142 -7 188 -30z"/>
 <path d="M4146 898 c4 -7 74 -111 156 -230 81 -119 148 -220 147 -225 0 -4 -21 -38 -47 -75 -63 -88 -236 -340 -246 -355 -6 -10 30 -13 166 -13 l173 0 58 106 59 106 61 -106 61 -106 173 0 173 0 -87 128 c-48 70 -118 169 -154 221 l-67 95 37 55 c20 31 38 58 41 61 4 3 59 83 123 178 l117 172 -174 0 -174 0 -62 -105 c-34 -58 -65 -105 -69 -105 -3 0 -33 47 -66 105 l-60 105 -173 0 c-136 0 -172 -3 -166 -12z"/>
 </g>

</svg>