<!DOCTYPE svg PUBLIC "-//W3C//DTD SVG 20010904//EN" "http://www.w3.org/TR/2001/REC-SVG-20010904/DTD/svg10.dtd">
<svg version="1.0" xmlns="http://www.w3.org/2000/svg" width="1600px" height="204px" viewBox="0 0 16000 2040" preserveAspectRatio="xMidYMid meet">
<g id="layer101" fill="#000000" stroke="none">
 <path d="M1620 1870 l0 -170 35 0 c19 0 35 5 35 11 0 8 5 7 15 -1 19 -16 84 -17 112 -2 71 39 68 198 -6 236 -38 20 -54 20 -91 1 l-30 -16 0 56 0 55 -35 0 -35 0 0 -170z m166 5 c18 -28 14 -85 -7 -111 -31 -38 -89 1 -89 61 0 68 63 101 96 50z"/>
 <path d="M3508 2033 c-12 -3 -18 -14 -18 -34 0 -26 3 -29 23 -24 15 4 28 1 36 -9 11 -13 5 -36 -33 -137 -25 -67 -46 -123 -46 -125 0 -2 17 -4 38 -4 l38 0 24 75 c13 42 27 72 31 68 4 -5 16 -37 26 -73 19 -64 20 -65 56 -68 20 -2 37 -1 37 2 0 20 -106 294 -119 308 -17 17 -66 29 -93 21z"/>
 <path d="M4319 2011 c-16 -16 -29 -34 -29 -40 0 -17 77 -13 84 4 7 18 57 20 74 3 7 -7 12 -23 12 -35 0 -20 -3 -22 -19 -13 -39 20 -91 12 -122 -19 -26 -26 -29 -36 -29 -89 0 -50 4 -66 25 -90 30 -36 77 -47 116 -28 16 8 29 10 29 5 0 -5 16 -9 35 -9 l35 0 0 129 c0 71 -4 141 -10 155 -13 34 -59 56 -120 56 -44 0 -56 -5 -81 -29z m119 -137 c41 -28 21 -124 -26 -124 -51 0 -73 94 -30 124 12 9 25 16 28 16 3 0 16 -7 28 -16z"/>
 <path d="M1144 1950 c-79 -32 -96 -167 -30 -229 28 -27 95 -33 121 -11 13 11 15 5 15 -44 l0 -56 35 0 35 0 0 170 0 170 -30 0 c-16 0 -30 -5 -30 -10 0 -6 -13 -4 -30 5 -32 17 -54 18 -86 5z m83 -58 c6 -4 17 -20 23 -36 14 -37 -3 -92 -31 -101 -32 -10 -57 4 -69 39 -17 51 9 106 50 106 8 0 20 -4 27 -8z"/>
 <path d="M1424 1946 c-48 -21 -74 -61 -74 -115 0 -81 46 -133 118 -135 72 -1 122 45 122 114 l0 30 -85 0 c-67 0 -85 3 -85 14 0 40 64 61 94 31 15 -15 76 -21 76 -7 0 19 -35 55 -66 68 -41 17 -60 17 -100 0z m96 -152 c0 -19 -24 -44 -42 -44 -22 0 -58 26 -58 42 0 4 23 8 50 8 28 0 50 -3 50 -6z"/>
 <path d="M1945 1937 c-129 -73 -38 -281 102 -234 44 15 71 50 80 100 l6 37 -87 0 c-68 0 -86 3 -86 14 0 39 65 61 90 31 7 -8 28 -15 47 -15 l34 0 -17 30 c-20 32 -68 60 -106 60 -12 0 -41 -11 -63 -23z m103 -159 c-20 -29 -58 -35 -75 -12 -21 29 -16 34 38 34 51 0 51 0 37 -22z"/>
 <path d="M2472 1940 c-42 -26 -55 -61 -50 -133 6 -75 36 -110 98 -110 23 0 46 5 53 12 21 21 27 11 27 -44 l0 -55 35 0 35 0 0 170 0 170 -35 0 c-19 0 -35 -5 -35 -10 0 -6 -13 -4 -30 5 -39 20 -58 19 -98 -5z m102 -56 c58 -57 -5 -173 -64 -119 -14 12 -20 31 -20 58 0 65 47 99 84 61z"/>
 <path d="M2763 1945 c-63 -27 -89 -107 -59 -180 19 -44 57 -68 111 -68 71 0 105 32 122 116 l6 27 -92 0 c-50 0 -91 3 -91 8 0 4 7 18 16 30 17 25 52 29 80 7 20 -15 74 -21 74 -7 0 16 -33 53 -60 67 -36 18 -65 18 -107 0z m97 -158 c0 -36 -51 -49 -82 -20 -29 26 -22 33 32 33 34 0 50 -4 50 -13z"/>
 <path d="M3909 1940 c-36 -19 -43 -29 -60 -84 -12 -40 6 -102 37 -131 52 -49 151 -36 191 24 45 67 19 167 -52 197 -45 19 -72 17 -116 -6z m105 -62 c48 -68 -17 -164 -76 -111 -23 21 -25 95 -2 117 22 23 60 20 78 -6z"/>
 <path d="M4595 1948 c-30 -16 -45 -39 -45 -70 0 -38 29 -65 81 -73 24 -3 52 -9 62 -11 23 -7 22 -41 -3 -49 -21 -7 -60 10 -60 25 0 6 -16 10 -36 10 -31 0 -35 -3 -32 -21 2 -12 15 -31 30 -42 34 -26 126 -27 163 -3 24 16 25 21 25 104 0 48 3 97 6 110 6 20 3 22 -30 22 -20 0 -36 -5 -36 -10 0 -6 -13 -4 -30 5 -34 18 -67 19 -95 3z m93 -54 c12 -8 22 -24 22 -35 0 -26 -40 -25 -71 1 -24 20 -24 20 -5 35 24 19 26 19 54 -1z"/>
 <path d="M5483 1945 c-61 -26 -86 -102 -58 -172 21 -52 54 -75 110 -75 54 -1 92 22 111 67 29 70 25 74 -76 77 l-89 3 12 25 c15 30 67 39 87 16 7 -9 28 -16 47 -16 l34 0 -17 30 c-32 54 -99 72 -161 45z m95 -167 c-18 -27 -53 -35 -74 -18 -30 25 -16 40 37 40 51 0 51 0 37 -22z"/>
 <path d="M5729 1937 c-64 -43 -74 -148 -20 -209 27 -31 74 -40 119 -25 21 8 22 6 22 -42 l0 -51 40 0 40 0 0 170 0 170 -35 0 c-19 0 -35 -5 -35 -10 0 -6 -13 -4 -30 5 -40 21 -61 19 -101 -8z m101 -47 c47 -25 27 -140 -24 -140 -51 0 -76 73 -42 124 18 28 36 32 66 16z"/>
 <path d="M7163 1945 c-62 -27 -89 -107 -58 -175 23 -50 55 -72 110 -72 54 -1 92 22 111 67 29 70 25 74 -76 77 l-89 3 12 25 c15 30 50 37 82 16 13 -9 39 -16 56 -16 30 0 31 1 17 23 -22 32 -77 67 -107 67 -14 -1 -40 -7 -58 -15z m97 -158 c0 -19 -21 -37 -45 -37 -24 0 -45 18 -45 37 0 9 15 13 45 13 30 0 45 -4 45 -13z"/>
 <path d="M7629 1937 c-47 -31 -61 -62 -56 -125 3 -37 10 -59 27 -77 28 -29 83 -47 119 -38 57 14 79 41 95 116 l6 27 -90 0 c-95 0 -110 9 -72 43 23 21 56 22 72 2 13 -15 80 -21 80 -7 0 19 -35 55 -66 68 -47 20 -76 17 -115 -9z m111 -143 c0 -19 -24 -44 -42 -44 -22 0 -58 26 -58 42 0 4 23 8 50 8 28 0 50 -3 50 -6z"/>
 <path d="M26 1938 c4 -7 22 -34 41 -59 18 -26 33 -52 33 -58 0 -7 -16 -35 -35 -64 l-35 -52 37 -3 c31 -3 41 1 60 25 l23 28 23 -28 c18 -24 29 -28 60 -25 l37 3 -40 56 -40 56 45 64 45 64 -37 3 c-38 3 -51 -6 -84 -57 -7 -11 -12 -12 -15 -4 -18 42 -47 63 -85 63 -29 0 -38 -3 -33 -12z"/>
 <path d="M700 1825 l0 -125 35 0 35 0 0 125 0 125 -35 0 -35 0 0 -125z"/>
 <path d="M810 1825 l0 -125 35 0 c26 0 35 4 35 17 0 14 2 14 21 -3 29 -26 94 -23 122 5 19 19 22 35 25 126 l4 105 -41 0 -40 0 -3 -91 c-2 -75 -6 -94 -20 -103 -13 -8 -23 -8 -35 0 -15 9 -19 28 -21 103 l-3 91 -39 0 -40 0 0 -125z"/>
 <path d="M2160 1825 l0 -125 30 0 c21 0 30 5 30 17 0 14 2 14 20 -2 12 -11 35 -18 62 -18 33 0 47 6 65 27 21 24 23 37 23 127 l0 99 -35 0 -35 0 0 -78 c0 -105 -31 -150 -74 -106 -12 12 -16 36 -16 100 l0 84 -35 0 -35 0 0 -125z"/>
 <path d="M2960 1825 l0 -125 35 0 c19 0 35 4 35 9 0 6 15 4 34 -4 21 -9 48 -12 66 -9 50 11 60 35 60 151 l0 103 -35 0 -35 0 0 -88 c0 -90 -8 -112 -41 -112 -33 0 -49 39 -49 122 l0 78 -35 0 -35 0 0 -125z"/>
 <path d="M3268 1939 c-15 -8 -18 -25 -18 -99 0 -83 -1 -90 -20 -90 -15 0 -20 -7 -20 -25 0 -18 5 -25 20 -25 16 0 20 -7 20 -35 0 -33 2 -35 35 -35 33 0 35 2 35 35 0 31 3 35 25 35 20 0 25 5 25 25 0 20 -5 25 -25 25 -24 0 -25 2 -25 70 0 68 1 70 25 70 21 0 25 5 25 30 0 29 -2 30 -42 30 -24 0 -51 -5 -60 -11z"/>
 <path d="M3390 1780 l0 -170 35 0 35 0 0 170 0 170 -35 0 -35 0 0 -170z"/>
 <path d="M4120 1825 l0 -125 35 0 c26 0 35 4 35 17 0 15 1 15 18 0 10 -9 29 -18 43 -19 21 -3 24 1 27 34 3 32 1 36 -17 31 -13 -3 -29 4 -45 21 -23 22 -26 33 -26 96 l0 70 -35 0 -35 0 0 -125z"/>
 <path d="M4820 1825 l0 -125 35 0 c19 0 35 4 35 9 0 6 16 3 36 -5 42 -18 97 -5 114 26 6 10 10 64 10 119 l0 101 -35 0 -35 0 0 -81 c0 -88 -10 -119 -40 -119 -34 0 -50 38 -50 122 l0 78 -35 0 -35 0 0 -125z"/>
 <path d="M5080 1825 l0 -125 35 0 35 0 0 125 0 125 -35 0 -35 0 0 -125z"/>
 <path d="M5180 1919 c0 -23 13 -46 55 -92 l55 -62 -50 -3 c-48 -3 -50 -4 -50 -33 l0 -29 105 0 105 0 0 26 c0 18 -19 48 -61 95 l-61 69 61 0 61 0 0 30 0 30 -110 0 -110 0 0 -31z"/>
 <path d="M6160 1815 l0 -135 -50 0 -50 0 0 -35 0 -35 140 0 140 0 0 35 0 35 -50 0 -50 0 0 135 0 135 -40 0 -40 0 0 -135z"/>
 <path d="M6370 1780 l0 -170 125 0 125 0 0 35 0 35 -85 0 -85 0 0 30 0 30 80 0 80 0 0 35 0 35 -80 0 -80 0 0 35 0 35 90 0 90 0 0 35 0 35 -130 0 -130 0 0 -170z"/>
 <path d="M6650 1780 l0 -170 90 0 c100 0 141 12 180 54 21 23 25 39 28 104 3 68 1 81 -20 112 -36 54 -78 70 -185 70 l-93 0 0 -170z m204 67 c26 -36 26 -99 -1 -135 -16 -22 -29 -28 -72 -30 l-51 -3 0 101 0 101 51 -3 c43 -2 55 -8 73 -31z"/>
 <path d="M7373 1825 l-41 -125 37 0 38 0 24 83 25 82 23 -82 24 -83 38 0 37 0 -43 123 -43 122 -38 3 -39 3 -42 -126z"/>
 <path d="M7840 1825 l0 -125 35 0 c19 0 35 5 35 11 0 8 4 8 13 2 35 -28 118 -18 137 17 5 10 10 64 10 119 l0 101 -35 0 -35 0 0 -81 c0 -87 -10 -119 -39 -119 -37 0 -51 32 -51 118 l0 82 -35 0 -35 0 0 -125z"/>
 <path d="M8148 1939 c-15 -8 -18 -25 -18 -99 0 -83 -1 -90 -20 -90 -15 0 -20 -7 -20 -25 0 -18 5 -25 20 -25 16 0 20 -7 20 -35 0 -33 2 -35 35 -35 33 0 35 2 35 35 0 31 3 35 25 35 20 0 25 5 25 25 0 20 -5 25 -25 25 -24 0 -25 2 -25 70 0 68 1 70 25 70 21 0 25 5 25 30 0 29 -2 30 -42 30 -24 0 -51 -5 -60 -11z"/>
 <path d="M350 1880 l0 -30 125 0 125 0 0 30 0 30 -125 0 -125 0 0 -30z"/>
 <path d="M350 1780 l0 -30 125 0 125 0 0 30 0 30 -125 0 -125 0 0 -30z"/>
 <path d="M700 1640 c0 -28 3 -30 35 -30 32 0 35 2 35 30 0 28 -3 30 -35 30 -32 0 -35 -2 -35 -30z"/>
 <path d="M5080 1640 c0 -28 3 -30 35 -30 32 0 35 2 35 30 0 28 -3 30 -35 30 -32 0 -35 -2 -35 -30z"/>
 <path d="M6439 1350 c-120 -21 -189 -104 -189 -227 0 -88 16 -133 65 -179 54 -53 108 -71 273 -91 86 -11 143 -23 162 -35 27 -16 30 -23 30 -68 0 -87 -68 -140 -180 -140 -88 1 -160 55 -177 133 -5 26 -8 27 -71 27 l-65 0 7 -46 c8 -62 51 -138 95 -168 66 -45 129 -59 253 -54 102 3 118 6 166 33 112 61 122 97 122 431 0 277 1 282 60 270 l30 -5 0 49 c0 46 -3 51 -27 61 -16 6 -52 9 -81 7 -58 -5 -105 -39 -116 -84 -6 -23 -6 -23 -59 16 -79 61 -197 88 -298 70z m183 -124 c56 -16 111 -57 138 -101 16 -25 20 -50 20 -113 0 -80 0 -81 -22 -73 -13 5 -63 14 -113 20 -190 25 -251 61 -249 149 1 108 96 158 226 118z"/>
 <path d="M8389 1350 c-25 -4 -60 -15 -76 -24 -46 -23 -99 -91 -112 -141 -7 -27 -11 -161 -11 -354 l0 -311 70 0 70 0 0 288 c0 164 4 303 10 324 6 20 26 50 46 67 31 28 41 31 102 31 49 0 76 -5 99 -20 39 -24 89 -90 104 -139 7 -21 14 -144 16 -293 l5 -258 69 0 69 0 0 405 0 405 -70 0 -70 0 0 -51 0 -51 -42 43 c-24 23 -61 50 -83 60 -49 22 -135 30 -196 19z"/>
 <path d="M9333 1350 c-55 -12 -80 -25 -125 -68 l-38 -36 0 42 0 42 -70 0 -70 0 0 -555 0 -555 75 0 75 0 0 191 0 191 38 -34 c60 -54 116 -71 214 -66 166 9 266 100 304 277 40 189 -10 399 -118 496 -71 64 -188 95 -285 75z m142 -134 c18 -8 48 -34 65 -57 48 -67 63 -133 58 -263 -4 -133 -28 -193 -96 -241 -37 -25 -51 -29 -110 -29 -53 0 -76 5 -105 23 -45 28 -81 88 -96 159 -17 80 -14 230 5 286 17 49 69 111 108 126 34 14 133 11 171 -4z"/>
 <path d="M10821 1350 c-176 -37 -281 -193 -281 -420 1 -210 81 -355 229 -411 78 -29 234 -24 301 10 94 48 160 145 160 236 l0 35 -63 0 -64 0 -12 -42 c-18 -59 -38 -85 -86 -113 -49 -29 -138 -34 -184 -11 -45 24 -97 89 -117 147 -24 73 -24 224 0 297 20 59 64 115 107 138 32 16 125 19 162 5 40 -16 95 -80 112 -132 l17 -49 64 0 c61 0 64 1 64 25 0 36 -37 127 -70 173 -30 42 -95 86 -147 101 -51 15 -146 20 -192 11z"/>
 <path d="M11635 1346 c-167 -41 -275 -157 -291 -314 l-7 -63 74 3 74 3 3 30 c8 83 54 145 140 187 63 31 73 33 177 33 102 0 114 -2 170 -30 77 -39 105 -79 105 -152 0 -113 -38 -138 -326 -212 -252 -65 -302 -90 -347 -176 -30 -56 -30 -190 1 -257 45 -101 115 -161 226 -193 84 -25 269 -17 348 14 113 44 201 154 215 269 l6 52 -70 0 -71 0 -12 -47 c-8 -35 -24 -60 -58 -93 -58 -56 -109 -73 -220 -72 -71 0 -91 4 -139 28 -74 37 -96 68 -101 142 -7 104 33 130 308 196 202 48 254 69 311 126 61 61 84 131 77 234 -10 148 -100 249 -263 292 -62 17 -262 17 -330 0z"/>
 <path d="M12628 1350 c-60 -11 -141 -55 -179 -97 -69 -80 -103 -188 -102 -333 0 -188 68 -320 198 -388 42 -22 67 -27 150 -30 114 -4 181 14 247 68 44 36 85 117 94 183 l7 47 -70 0 -70 0 -7 -40 c-8 -50 -63 -114 -113 -131 -19 -6 -62 -9 -94 -7 -75 5 -122 41 -164 124 -28 56 -30 66 -30 179 0 94 4 130 18 165 26 63 64 110 103 126 50 21 142 18 181 -6 42 -25 91 -93 99 -136 l6 -34 70 0 70 0 -7 38 c-20 110 -102 218 -190 251 -62 23 -155 32 -217 21z"/>
 <path d="M14292 1349 c-143 -24 -259 -143 -293 -299 -7 -31 -10 -100 -7 -161 4 -100 7 -114 41 -183 70 -141 175 -206 332 -206 160 0 269 69 336 213 33 71 34 74 34 207 0 150 -11 194 -71 286 -74 112 -221 169 -372 143z m195 -155 c82 -66 107 -132 106 -274 0 -141 -34 -216 -121 -271 -38 -24 -57 -29 -108 -29 -53 0 -68 4 -110 33 -62 42 -100 111 -113 202 -23 162 38 322 139 364 14 6 57 10 97 8 63 -2 76 -6 110 -33z"/>
 <path d="M15152 1349 c-137 -24 -248 -132 -288 -283 -18 -68 -18 -208 1 -281 33 -126 116 -225 221 -264 113 -43 266 -24 365 45 53 37 113 129 134 207 24 90 17 269 -13 347 -67 170 -234 261 -420 229z m161 -133 c41 -17 93 -75 120 -135 16 -37 21 -68 21 -151 1 -101 0 -108 -34 -175 -28 -55 -45 -77 -85 -103 -47 -32 -55 -34 -117 -30 -89 5 -140 39 -183 123 -29 56 -30 64 -30 184 0 117 2 130 27 176 47 89 102 125 191 125 32 0 72 -6 90 -14z"/>
 <path d="M310 915 l0 -415 -155 0 -155 0 0 -145 0 -145 485 0 485 0 0 145 0 145 -155 0 -155 0 0 415 0 415 -175 0 -175 0 0 -415z"/>
 <path d="M1020 770 l0 -560 470 0 470 0 0 145 0 145 -295 0 -295 0 0 70 0 70 295 0 295 0 0 135 0 135 -295 0 -295 0 0 65 0 65 295 0 295 0 0 145 0 145 -470 0 -470 0 0 -560z"/>
 <path d="M2020 770 l0 -560 303 0 c166 0 331 5 367 10 138 22 267 115 329 238 89 177 92 435 7 607 -64 130 -163 207 -312 245 -69 18 -111 20 -386 20 l-308 0 0 -560z m585 251 c49 -22 98 -76 116 -128 7 -21 13 -76 14 -123 0 -69 -5 -94 -24 -133 -44 -91 -109 -124 -262 -134 l-89 -6 0 272 0 271 103 0 c77 0 112 -5 142 -19z"/>
 <path d="M4070 775 l0 -556 308 3 307 3 51 27 c59 31 99 74 127 137 15 35 18 59 15 117 -6 85 -36 145 -99 196 l-40 32 44 23 c59 29 121 102 137 158 7 27 11 75 8 118 -9 128 -76 221 -197 269 -53 22 -72 23 -358 26 l-303 3 0 -556z m560 414 c93 -20 143 -83 144 -184 0 -72 -17 -111 -63 -142 -55 -37 -96 -43 -293 -43 l-188 0 0 190 0 190 175 0 c95 0 197 -5 225 -11z m10 -525 c67 -39 99 -117 80 -197 -21 -94 -84 -117 -322 -117 l-168 0 0 171 0 171 188 -4 c167 -3 191 -5 222 -24z"/>
 <path d="M5090 925 l0 -405 70 0 70 0 0 405 0 405 -70 0 -70 0 0 -405z"/>
 <path d="M5450 925 l0 -405 70 0 70 0 0 56 0 56 45 -50 c55 -61 97 -82 164 -82 l51 0 0 73 0 72 -41 2 c-90 3 -161 49 -196 128 -15 34 -18 78 -21 298 l-4 257 -69 0 -69 0 0 -405z"/>
 <path d="M5950 775 l0 -555 70 0 70 0 0 555 0 555 -70 0 -70 0 0 -555z"/>
 <path d="M7180 775 l0 -555 294 0 c353 0 370 3 456 90 41 40 60 69 73 109 48 151 -9 325 -131 397 -71 43 -144 54 -355 54 l-177 0 0 230 0 230 -80 0 -80 0 0 -555z m555 -56 c82 -23 133 -112 122 -211 -8 -67 -31 -104 -80 -130 -39 -21 -58 -23 -239 -26 l-198 -4 0 191 0 191 178 0 c97 0 195 -5 217 -11z"/>
 <path d="M9910 775 l0 -555 70 0 70 0 0 555 0 555 -70 0 -70 0 0 -555z"/>
 <path d="M10250 925 l0 -405 70 0 70 0 0 405 0 405 -70 0 -70 0 0 -405z"/>
 <path d="M13170 775 l0 -555 70 0 70 0 0 200 0 200 38 -38 c58 -58 104 -76 203 -80 104 -5 171 19 223 79 56 66 59 84 63 432 l5 317 -70 0 -70 0 -4 -297 c-3 -277 -4 -300 -23 -332 -34 -57 -66 -75 -137 -75 -71 1 -107 16 -155 66 -60 62 -66 95 -71 381 l-4 257 -69 0 -69 0 0 -555z"/>
 <path d="M15760 775 l0 -555 70 0 70 0 0 555 0 555 -70 0 -70 0 0 -555z"/>
 <path d="M3126 888 c4 -7 57 -86 117 -175 l111 -163 -112 -164 c-62 -90 -112 -167 -112 -170 0 -3 57 -6 128 -6 l127 0 33 64 c57 110 52 109 103 17 l44 -80 128 -1 c70 0 127 2 127 5 0 3 -50 80 -112 170 l-112 165 110 162 c61 90 114 169 118 176 6 9 -21 12 -122 12 l-130 0 -32 -57 c-18 -32 -41 -68 -50 -80 -21 -27 -22 -26 -74 70 l-38 67 -129 0 c-101 0 -129 -3 -123 -12z"/>
 <path d="M5090 300 l0 -80 75 0 75 0 0 80 0 80 -75 0 -75 0 0 -80z"/>
 <path d="M10250 300 l0 -80 75 0 75 0 0 80 0 80 -75 0 -75 0 0 -80z"/>
 </g>
<g id="layer102" fill="#ff2b06" stroke="none">
 <path d="M26 1938 c4 -7 22 -34 41 -59 18 -26 33 -52 33 -58 0 -7 -16 -35 -35 -64 l-35 -52 37 -3 c31 -3 41 1 60 25 l23 28 23 -28 c18 -24 29 -28 60 -25 l37 3 -40 56 -40 56 45 64 45 64 -37 3 c-38 3 -51 -6 -84 -57 -7 -11 -12 -12 -15 -4 -18 42 -47 63 -85 63 -29 0 -38 -3 -33 -12z"/>
 <path d="M310 915 l0 -415 -155 0 -155 0 0 -145 0 -145 485 0 485 0 0 145 0 145 -155 0 -155 0 0 415 0 415 -175 0 -175 0 0 -415z"/>
 <path d="M1020 770 l0 -560 470 0 470 0 0 145 0 145 -295 0 -295 0 0 70 0 70 295 0 295 0 0 135 0 135 -295 0 -295 0 0 65 0 65 295 0 295 0 0 145 0 145 -470 0 -470 0 0 -560z"/>
 <path d="M2020 770 l0 -560 303 0 c166 0 331 5 367 10 138 22 267 115 329 238 89 177 92 435 7 607 -64 130 -163 207 -312 245 -69 18 -111 20 -386 20 l-308 0 0 -560z m585 251 c49 -22 98 -76 116 -128 7 -21 13 -76 14 -123 0 -69 -5 -94 -24 -133 -44 -91 -109 -124 -262 -134 l-89 -6 0 272 0 271 103 0 c77 0 112 -5 142 -19z"/>
 <path d="M3126 888 c4 -7 57 -86 117 -175 l111 -163 -112 -164 c-62 -90 -112 -167 -112 -170 0 -3 57 -6 128 -6 l127 0 33 64 c57 110 52 109 103 17 l44 -80 128 -1 c70 0 127 2 127 5 0 3 -50 80 -112 170 l-112 165 110 162 c61 90 114 169 118 176 6 9 -21 12 -122 12 l-130 0 -32 -57 c-18 -32 -41 -68 -50 -80 -21 -27 -22 -26 -74 70 l-38 67 -129 0 c-101 0 -129 -3 -123 -12z"/>
 </g>

</svg>